<?xml version="1.0" encoding="UTF-8"?>
<svg width="30px" height="24px" viewBox="0 0 30 24" version="1.1" xmlns="http://www.w3.org/2000/svg" xmlns:xlink="http://www.w3.org/1999/xlink">
    <!-- Generator: sketchtool 41.2 (35397) - http://www.bohemiancoding.com/sketch -->
    <title>D83EC7E3-D147-4431-AB15-0546C6E46F25</title>
    <desc>Created with sketchtool.</desc>
    <defs></defs>
    <g id="Page-1" stroke="none" stroke-width="1" fill="none" fill-rule="evenodd">
        <g id="Icons" transform="translate(-1689.000000, -356.000000)" fill="#FFFFFF">
            <path d="M1718.95223,366.511625 C1718.92401,366.324779 1718.89551,366.137841 1718.87089,365.950995 C1718.62391,364.084013 1717.78818,362.371506 1716.38711,360.860601 C1714.49301,358.818393 1712.03377,357.42452 1708.86947,356.599115 C1706.97667,356.105717 1704.95503,355.915182 1702.8608,356.03452 C1699.41144,356.230127 1696.48628,357.163987 1693.91775,358.889129 C1692.22369,360.026804 1690.98282,361.348189 1690.12338,362.929 C1689.4886,364.097201 1689.13492,365.306903 1689.07442,366.509227 C1689.07212,366.523522 1689.0676,366.537448 1689.05699,366.57443 C1689.04362,366.621187 1689.03062,366.667391 1689.01642,366.740433 L1689,367.358149 L1689.04731,367.716531 C1689.07286,367.878938 1689.09794,368.041805 1689.11989,368.204396 C1689.31919,369.698609 1689.89374,371.076712 1690.87547,372.415251 C1690.49348,373.750839 1690.11573,375.087533 1689.73779,376.424135 L1689.45347,377.425042 C1689.42156,377.529901 1689.39149,377.635405 1689.37406,377.742846 C1689.29253,378.239657 1689.45826,378.716086 1689.8172,379.017289 C1690.05661,379.218337 1690.35754,379.324764 1690.68779,379.324764 C1690.86403,379.324764 1691.04221,379.293592 1691.21753,379.232355 C1691.94942,378.976618 1692.68038,378.718207 1693.41153,378.459795 L1695.10846,377.860339 C1695.85916,377.595103 1696.60986,377.329498 1697.38694,377.065553 C1698.9778,377.625445 1700.62354,377.978017 1702.27905,378.113955 C1706.05544,378.422813 1709.54123,377.769314 1712.63793,376.17181 C1714.94722,374.980553 1716.62496,373.442257 1717.76632,371.468111 C1718.47654,370.239687 1718.86747,368.957128 1718.92641,367.670881 C1718.92843,367.656401 1718.93323,367.642107 1718.94374,367.606785 C1718.95675,367.560581 1718.96938,367.514376 1718.98368,367.442073 L1719,366.879875 L1718.95223,366.511625 Z" id="Fill-12"></path>
        </g>
    </g>
</svg>