<svg xmlns="http://www.w3.org/2000/svg" width="35" height="26" viewBox="0 0 35 26">
    <path fill="#FFF" fill-rule="nonzero" d="M0 12.547l.04.254c.035.22.07.444.098.663a9.75 9.75 0 0 0 2.002 4.65c.304.378.397.883.248 1.345-.503 1.765-1.005 3.532-1.505 5.301l-.34 1.195 2.572-.9 2.17-.768c.992-.352 1.984-.698 2.977-1.044.35-.117.728-.117 1.078 0a23.129 23.129 0 0 0 5.908 1.287 21.98 21.98 0 0 0 12.23-2.308 13.587 13.587 0 0 0 5.816-5.262 8.723 8.723 0 0 0 1.235-4.038c.01-.16.04-.32.086-.473v-.34l-.04-.272a34.05 34.05 0 0 1-.11-.755 9.75 9.75 0 0 0-2.688-5.47c-2.17-2.336-5.02-3.946-8.706-4.903A22.985 22.985 0 0 0 15.97.045 20.342 20.342 0 0 0 5.481 3.38a12.727 12.727 0 0 0-4.246 4.5 8.787 8.787 0 0 0-1.12 3.807 2.06 2.06 0 0 1-.086.468v.386L0 12.547z"/>
</svg>
