<svg xmlns="http://www.w3.org/2000/svg" width="23" height="16" viewBox="0 0 23 16">
    <g fill="#FFF" fill-rule="evenodd">
        <path d="M22.313 13.333c0 .491-.4.89-.891.89h-7.003a.888.888 0 0 1-.89-.89c0-.49.4-.889.89-.889h7.003c.492 0 .89.395.89.89zm0-6.222a.89.89 0 0 1-.887.889h-9.521a.885.885 0 0 1-.887-.889.89.89 0 0 1 .887-.889h9.521c.49 0 .887.395.887.89zm0-6.222c0 .49-.404.889-.898.889H9.21a.89.89 0 0 1-.897-.89c0-.49.403-.888.897-.888h12.205a.89.89 0 0 1 .898.889z"/>
        <path stroke="#FFF" stroke-width=".5" d="M5.595 12.752l-.138.12v-.13-2.406-5.141c0-.313-.19-.547-.524-.653-.024-.007-.047-.019-.07-.028H4.55c-.442.133-.6.409-.6.819.01 3.647.006 3.72.005 7.366v.144l-.04.015c-.061-.062-.12-.126-.185-.185-.909-.824-1.015-.932-1.924-1.756a.78.78 0 0 0-.634-.208c-.313.035-.532.19-.63.455-.098.265-.022.5.198.7 1.341 1.214 1.877 1.712 3.216 2.927.175.159.343.324.594.39h.313c.147-.085.315-.149.437-.256.563-.495 1.114-1.001 1.67-1.504.832-.754.86-.793 1.692-1.547.259-.234.322-.538.17-.8-.244-.42-.843-.498-1.224-.155-.941.847-1.074.983-2.013 1.833z"/>
    </g>
</svg>
