<svg xmlns="http://www.w3.org/2000/svg" width="103" height="93" viewBox="0 0 103 93">
    <g fill="none" fill-rule="evenodd" transform="translate(1)">
        <circle cx="57" cy="45" r="45" fill="#F6A623"/>
        <g transform="rotate(24 -17.01 82.371)">
            <path fill="#5E1A11" d="M6.61.61s8.372 2.977 9.68 15.547L8.011 23.25l-5.968-2.72S1.843 8.54 6.61.61zM54.012.373s-8.67 1.58-9.482 9.391l8.942 5.34 3.708-1.691s-.206-8.112-3.168-13.04z"/>
            <path fill="#44120B" d="M48.483 17.41c2.492-1.08 18.575-9.256 18.575-9.256.983-.499 2.067-.047 2.298 1.015 0 0 1.607 2.881-1.714 8.113-.062.098 3.939-1.406 3.939-1.406 1.02-.38 1.852.216 1.782 1.31 0 0 .55 5.602-4.855 9.084.748.542.735 1.827 4.473.21.085-.037 0 0 0 0 .42-.189.649.513.649.513s-.002-.108 0 0c.124 6.882-11.242 12.275-14.014 12.716-2.54.406-5.49 0-6.966 2.739l-1.166-2.735"/>
            <ellipse cx="31.565" cy="31.888" fill="#5E1A11" rx="31.565" ry="31.719"/>
            <path fill="#E61E21" d="M53.868 35.208c.255.588.39 1.223.39 1.907 0 12.47-10.013 24.855-22.422 24.855S9.368 53.226 9.368 40.756c0-.357.036-.706.108-1.048a14.513 14.513 0 0 1-3.367-9.32c0-8.025 6.474-14.53 14.459-14.53 4.927 0 9.279 2.477 11.89 6.259 1.726-5.07 6.51-8.715 12.14-8.715 7.086 0 12.83 5.773 12.83 12.893 0 3.457-1.355 6.597-3.56 8.913z" opacity=".25"/>
            <path fill="#E61E21" fill-opacity=".5" d="M31.823 58.436c8.836 0 16-7.198 16-16.077 0-8.879-6.957-7.404-16-5.714-9.042 1.69-16.075-.662-16.075 8.217 0 8.879 7.24 13.574 16.075 13.574z"/>
            <g fill="#F6A623" transform="translate(11.676 56.104)">
                <rect width="3.168" height="6.367" rx="1.584"/>
                <rect width="3.168" height="6.367" x="3.168" y=".91" rx="1.584"/>
                <rect width="3.168" height="6.367" x="6.336" y="1.971" rx="1.584"/>
            </g>
            <path fill="#790607" d="M27.057 47.036c-.297.057-.503-.007-.917.145-.472.172-.885.362-1.398.395-1.155.073-1.424-.84-2.37-1.196-.366-.136-.78.151-.876.502-.776 2.825 5.604 3.515 6.014.507.034-.25-.25-.392-.453-.353M35.203 51.129c-.297.057-.504-.007-.917.145-.473.172-.886.362-1.398.394-1.155.074-1.424-.84-2.371-1.195-.366-.136-.78.151-.875.502-.776 2.825 5.604 3.515 6.014.507.034-.25-.25-.392-.453-.353M42.432 47.181c-.473.172-.886.362-1.398.395-1.156.073-1.424-.84-2.371-1.196-.366-.136-.78.151-.875.502-.777 2.825 5.604 3.515 6.014.507.034-.25-.25-.392-.453-.353-.297.057-.504-.007-.917.145z" opacity=".5"/>
            <path fill="#EE9D00" d="M31.252 36.708s-1.053.083-2.625.247c-2.164.226-4.454.484-6.261.884 3.493 6.28 8.03 6.656 10.02 6.735 2.437.097 6.203-2.718 7.787-9.036-1.588-.117-4.076.472-6.284.772a79.738 79.738 0 0 0-2.637.398z"/>
            <path fill="#DA7911" d="M31.276 36.607s-1.053.084-2.625.248c-2.164.225-3.47.294-5.277.694 3.494 6.28 13.302 9.194 15.913-2.074-1.587-.117-3.166.434-5.374.735a79.738 79.738 0 0 0-2.637.397z"/>
            <path fill="#F6A623" d="M30.965 29.11s-3.212 2.022-2.5 7.825c0 0 2.717.209 3.111 3.416.145 1.18 1.604.536 1.515-.186-.394-3.207 2.192-4.067 2.192-4.067-.713-5.803-4.318-6.988-4.318-6.988"/>
            <path fill="#5E1A11" fill-rule="nonzero" d="M25.841 30.256c-.794.243-1.651-.253-1.914-1.111-.784-2.566-3.36-4.062-5.741-3.334-2.381.728-3.68 3.409-2.896 5.975.263.858-.17 1.748-.965 1.991-.795.243-1.652-.253-1.914-1.111-1.308-4.278.857-8.745 4.826-9.958 3.969-1.213 8.262 1.28 9.57 5.557.262.858-.171 1.748-.966 1.991zM50.336 30.427c-.764-.176-1.23-.987-1.04-1.812.57-2.469-.83-4.908-3.12-5.437-2.291-.529-4.62 1.05-5.189 3.519-.19.825-.965 1.349-1.73 1.173-.764-.177-1.23-.987-1.04-1.813.95-4.115 4.83-6.745 8.647-5.864 3.818.882 6.152 4.946 5.202 9.061-.19.826-.965 1.35-1.73 1.173z"/>
        </g>
        <g fill="#F6A623" transform="scale(-1 1) rotate(-15 297.99 252.948)">
            <rect width="3.506" height="7.004" rx="1.753"/>
            <rect width="3.506" height="7.004" x="3.506" y=".442" rx="1.753"/>
            <rect width="3.506" height="7.004" x="7.011" y=".866" rx="1.753"/>
        </g>
        <path fill="#5E1A11" d="M11.619 70.746c-2.253-1.124-7.067-6.193-7.067-6.193-.768-.786-.496-1.294.592-1.172 0 0 2.82.556 4.678-.221-4.589.118-9.664-7.386-9.664-7.386-.66-.886-.312-1.688.793-1.794 0 0 4.364-.401 4.26-.472C3.162 52.114.916 47.28.916 47.28c-.493-.978-.107-1.336.907-.916 0 0 5.47 4.232 18.076-3.364.903 1.758 5.751 34.749-8.28 27.746z"/>
    </g>
</svg>
