<svg xmlns="http://www.w3.org/2000/svg" width="18" height="18" viewBox="0 0 18 18">
    <g fill="none" fill-rule="evenodd" opacity=".5">
        <circle cx="9" cy="9" r="9" fill="#565151"/>
        <path fill="#FFF" d="M8.267 10.829a1.23 1.23 0 0 1-.017-.197v-.198a2.4 2.4 0 0 1 .178-.969c.11-.26.262-.498.45-.708a3.6 3.6 0 0 1 .6-.522c.213-.149.412-.299.6-.45a2.7 2.7 0 0 0 .45-.459.912.912 0 0 0 .179-.567.839.839 0 0 0-.369-.714c-.247-.178-.63-.267-1.147-.267a2.208 2.208 0 0 0-.727.114 3.882 3.882 0 0 0-1.108.606c-.145.115-.272.21-.383.287L6.15 5.718c.207-.223.44-.42.694-.587.259-.169.534-.31.822-.42a5.1 5.1 0 0 1 1.792-.332c.927.001 1.647.194 2.161.581.5.36.79.946.771 1.562.012.37-.055.736-.198 1.077-.119.27-.285.516-.492.726a4.31 4.31 0 0 1-.661.525 5.902 5.902 0 0 0-.65.49c-.199.172-.37.375-.504.6-.146.27-.216.573-.204.88l-1.414.008zm-.255 1.81a.92.92 0 0 1 .28-.708c.203-.18.468-.274.74-.261.279-.015.553.078.764.261a.921.921 0 0 1 .281.708.94.94 0 0 1-.28.711c-.21.187-.485.283-.766.267a1.026 1.026 0 0 1-.739-.267.94.94 0 0 1-.279-.711h-.002z"/>
    </g>
</svg>
