<?xml version="1.0" encoding="UTF-8" standalone="no"?>
<svg width="23px" height="20px" viewBox="0 0 23 20" version="1.1" xmlns="http://www.w3.org/2000/svg" xmlns:xlink="http://www.w3.org/1999/xlink">
    <!-- Generator: sketchtool 41.2 (35397) - http://www.bohemiancoding.com/sketch -->
    <title>B89DE433-B080-440A-90A7-86F8BD7750D1</title>
    <desc>Created with sketchtool.</desc>
    <defs></defs>
    <g id="Chat-2" stroke="none" stroke-width="1" fill="none" fill-rule="evenodd">
        <g id="Chat-1" transform="translate(-962.000000, -100.000000)" fill="#FFFFFF">
            <g id="cliente" transform="translate(680.000000, 80.000000)">
                <path d="M293.201443,25.5555556 L293.201443,31.1111111 L297.956999,33.9333333 L298.756999,32.5833333 L294.86811,30.2777778 L294.86811,25.5555556 L293.201443,25.5555556 Z M284.312554,30 L282,30 L285.306999,34.3277778 L285.384776,34.4888889 L288.81811,30 L286.534776,30 C286.534776,25.7055556 290.01811,22.2222222 294.312554,22.2222222 C298.606999,22.2222222 302.090332,25.7055556 302.090332,30 C302.090332,34.2944444 298.606999,37.7777778 294.312554,37.7777778 C292.162554,37.7777778 290.223665,36.9 288.81811,35.4944444 L287.245888,37.0666667 C289.051443,38.8777778 291.545888,40 294.306999,40 C299.834776,40 304.312554,35.5222222 304.312554,30 C304.312554,24.4777778 299.834776,20 294.306999,20 C288.779221,20 284.312554,24.4777778 284.312554,30 Z" id="Combined-Shape"></path>
            </g>
        </g>
    </g>
</svg>