<?xml version="1.0" encoding="UTF-8"?>
<svg width="25px" height="17px" viewBox="0 0 25 17" version="1.1" xmlns="http://www.w3.org/2000/svg" xmlns:xlink="http://www.w3.org/1999/xlink">
    <!-- Generator: sketchtool 41.2 (35397) - http://www.bohemiancoding.com/sketch -->
    <title>18E75851-41E7-4AD7-85F6-E1222CC08514</title>
    <desc>Created with sketchtool.</desc>
    <defs></defs>
    <g id="Page-1" stroke="none" stroke-width="1" fill="none" fill-rule="evenodd">
        <g id="Icons" transform="translate(-244.000000, -323.000000)" fill="#FFFFFF">
            <g id="1480013628_icon-88-inbox" transform="translate(244.000000, 323.000000)">
                <g id="Group">
                    <g id="Page-1">
                        <g id="icon-88-inbox">
                            <path d="M8,8 L1.22497559,8 L5.59997559,1 L19.4000244,1 L23.7750244,8 L17,8 L17,9.9940809 C17,11.1134452 16.1057373,12 15.0026083,12 L9.9973917,12 C8.8958578,12 8,11.1019194 8,9.9940809 L8,8 L8,8 Z M5,0 L20,0 L25,8 L25,9.5 L25,13.9926777 C25,15.653576 23.6558914,17 22.0092478,17 L2.99075223,17 C1.33900538,17 0,15.6526091 0,14.0031303 L0,8 L5,0 Z" id="inbox"></path>
                        </g>
                    </g>
                </g>
            </g>
        </g>
    </g>
</svg>