<?xml version="1.0" encoding="UTF-8"?>
<svg width="84px" height="102px" viewBox="0 0 84 102" version="1.1" xmlns="http://www.w3.org/2000/svg" xmlns:xlink="http://www.w3.org/1999/xlink">
    <!-- Generator: sketchtool 42 (36781) - http://www.bohemiancoding.com/sketch -->
    <title>E5AC4052-9785-4988-9457-8AB5AB006F3E</title>
    <desc>Created with sketchtool.</desc>
    <defs></defs>
    <g id="Page-1-Copy-3" stroke="none" stroke-width="1" fill="none" fill-rule="evenodd" opacity="0.25">
        <g id="55-localizacao-vazio" transform="translate(-145.000000, -195.000000)" stroke="#4A4A4A" fill="#4A4A4A">
            <path d="M185.042019,214.80009 L185.356603,214.781365 C186.109355,214.743914 186.794697,214.725189 187.412628,214.725189 C198.629017,214.725189 208.789304,219.27541 216.140813,226.626919 L216.144558,226.630664 L216.148303,226.626919 C223.499813,233.978429 228.050034,244.142461 228.050034,255.362595 C228.050034,266.578983 223.499813,276.73927 216.148303,284.09078 L216.140813,284.09827 C208.789304,291.449779 198.629017,296 187.412628,296 C176.192495,296 166.028462,291.449779 158.676953,284.09827 L158.587072,284.000899 C151.287993,276.65688 146.775223,266.530297 146.775223,255.35885 C146.775223,251.250543 147.393154,247.273313 148.539136,243.50955 C149.625197,239.948019 151.183132,236.59621 153.141787,233.525279 C150.261853,228.62677 147.737698,223.863081 146.572991,220.215415 L146.539285,220.084338 L146.53554,220.061868 L146.531795,220.035653 C146.355779,219.29788 146.224702,218.560108 146.138566,217.837316 C146.048685,217.065838 146,216.298105 146,215.530372 C146,210.145008 148.187102,205.265224 151.722418,201.726163 L151.726163,201.722418 L151.729908,201.718673 L151.729908,201.718673 C155.265224,198.187102 160.145008,196 165.530372,196 C170.915737,196 175.795521,198.187102 179.334582,201.722418 L179.338327,201.726163 L179.342072,201.729908 L179.342072,201.729908 C182.716351,205.107932 184.858512,209.706838 185.045764,214.80009 L185.042019,214.80009 Z M165.526627,206.482361 C167.754925,206.482361 169.78099,207.38866 171.2453,208.85297 L171.25279,208.86046 C172.7171,210.32477 173.623399,212.350835 173.623399,214.579133 C173.623399,216.811175 172.7171,218.840986 171.25279,220.305295 L171.159164,220.391431 C169.702344,221.807056 167.713729,222.675904 165.526627,222.675904 C163.294585,222.675904 161.264774,221.769605 159.800464,220.305295 C158.336155,218.840986 157.429855,216.811175 157.429855,214.579133 C157.429855,212.34709 158.3399,210.321025 159.804209,208.856715 L159.800464,208.85297 C161.264774,207.38866 163.294585,206.482361 165.526627,206.482361 Z M169.043218,211.058797 C168.151899,210.163733 166.904801,209.609467 165.526627,209.609467 C164.155943,209.609467 162.912591,210.167478 162.010037,211.066287 L162.006292,211.062542 L162.002547,211.066287 C161.107483,211.957606 160.553217,213.204704 160.553217,214.582878 C160.553217,215.953562 161.111228,217.196914 162.010037,218.099468 C162.908846,218.998277 164.152198,219.556288 165.526627,219.556288 C166.867351,219.556288 168.084488,219.031983 168.968317,218.178114 L169.039473,218.099468 C169.938282,217.200659 170.496292,215.957307 170.496292,214.582878 C170.496292,213.204704 169.942027,211.961351 169.046963,211.066287 L169.039473,211.058797 L169.043218,211.058797 Z M156.283874,232.716351 L156.295109,232.735076 L156.302599,232.746311 L156.321324,232.780016 L156.340049,232.809977 L156.35503,232.843682 C157.744439,235.176841 159.205003,237.532469 160.624373,239.801962 C160.676803,239.873118 160.725489,239.948019 160.762939,240.026665 L162.129878,242.202532 C163.34327,244.134971 164.496742,245.97004 165.522882,247.651562 C166.549023,245.973785 167.698749,244.134971 168.915886,242.202532 L170.275335,240.034155 C170.316531,239.951764 170.365216,239.876863 170.417647,239.805707 C174.750655,232.884878 179.469403,225.128904 181.304472,219.870871 L181.349412,219.73605 L181.353157,219.72856 L181.364392,219.694854 L181.491723,219.31286 C181.6228,218.73987 181.735151,218.133174 181.806307,217.496517 L181.806307,217.474047 C181.881207,216.848626 181.918658,216.200734 181.918658,215.530372 C181.918658,210.995131 180.083589,206.894315 177.121264,203.93199 L177.113774,203.9245 C174.151449,200.962175 170.050633,199.127107 165.515392,199.127107 C160.980151,199.127107 156.879335,200.962175 153.91701,203.9245 L153.90952,203.93199 C150.947195,206.894315 149.112126,210.995131 149.112126,215.530372 C149.112126,216.200734 149.149577,216.848626 149.224478,217.474047 L149.224478,217.477792 C149.299378,218.121938 149.407984,218.736125 149.542806,219.31286 C150.688787,222.881882 153.306569,227.731705 156.272639,232.716351 L156.283874,232.716351 Z M154.954385,236.547525 C154.456295,237.405138 153.991911,238.285222 153.561231,239.180286 L156.572242,239.180286 L154.954385,236.547525 Z M158.523406,242.307393 L152.235488,242.307393 C151.97708,243.000225 151.741143,243.704292 151.523931,244.412104 C150.47532,247.857539 149.909819,251.535166 149.909819,255.355104 C149.909819,259.942776 150.733728,264.343195 152.242978,268.406561 L165.605273,268.406561 C163.953711,262.770279 163.395701,256.841885 163.927496,251.014606 C162.729084,248.992285 161.171148,246.516815 159.500861,243.861583 L158.523406,242.303648 L158.523406,242.307393 Z M167.039623,251.175642 C166.496592,256.957981 167.103288,262.848925 168.859711,268.406561 L185.854693,268.406561 L185.854693,242.307393 L172.533593,242.307393 L171.559883,243.861583 C169.844656,246.591716 168.253015,249.123362 167.039623,251.175642 Z M174.484758,239.176541 L185.850947,239.176541 L185.850947,220.140514 C185.244251,220.518763 184.663771,220.904502 184.10576,221.293985 C182.281926,226.248671 178.364617,232.911093 174.484758,239.172796 L174.484758,239.176541 Z M191.528425,218.069508 C197.662797,222.106659 202.359074,227.409632 205.613512,233.386713 C206.632162,235.255486 207.504756,237.191671 208.242529,239.176541 L221.26777,239.176541 C219.417722,235.315407 216.931016,231.821287 213.942476,228.829002 L213.946221,228.825257 C208.070257,222.953037 200.246873,219.020748 191.528425,218.069508 Z M209.272414,242.303648 C210.485806,246.494345 211.099993,250.849824 211.103738,255.205303 C211.111228,259.658153 210.482061,264.118493 209.231219,268.406561 L222.597259,268.406561 C224.106509,264.343195 224.930417,259.942776 224.930417,255.355104 C224.930417,250.767433 224.106509,246.367014 222.597259,242.307393 L209.276159,242.307393 L209.272414,242.303648 Z M208.193843,271.529923 C207.489776,273.424912 206.654633,275.274961 205.692158,277.065089 C202.43023,283.13205 197.692757,288.532395 191.487229,292.644446 C200.224403,291.704442 208.059022,287.764662 213.946221,281.881207 C216.938506,278.888922 219.425212,275.391057 221.271515,271.529923 L208.193843,271.529923 Z M188.981799,290.554715 C195.123661,286.682346 199.782488,281.472998 202.947045,275.585799 C203.654857,274.267546 204.291514,272.911842 204.849524,271.529923 L188.981799,271.529923 L188.981799,290.554715 Z M205.976781,268.402816 C207.328739,264.129728 207.999101,259.665643 207.995356,255.201558 C207.991611,250.838589 207.332484,246.471875 206.025466,242.299903 L188.981799,242.299903 L188.981799,268.399071 L205.976781,268.399071 L205.976781,268.402816 Z M204.9057,239.176541 C204.313984,237.708486 203.639877,236.270392 202.879634,234.873493 C199.722568,229.064939 195.086211,223.941727 188.981799,220.136769 L188.981799,239.176541 L204.9057,239.176541 Z M169.986967,271.529923 C170.451352,272.679649 170.968167,273.806906 171.537413,274.915437 L171.537413,274.915437 C174.705715,281.079769 179.480638,286.536289 185.854693,290.55846 L185.854693,271.533668 L169.986967,271.533668 L169.986967,271.529923 Z M183.345517,292.644446 C176.892817,288.371358 172.031758,282.705116 168.76234,276.342296 L168.76234,276.342296 L168.76234,276.338551 C167.960902,274.773126 167.25309,273.170249 166.642648,271.529923 L153.564976,271.529923 C155.3963,275.357352 157.85679,278.829002 160.811625,281.802562 L160.894015,281.877462 C166.77747,287.760917 174.612089,291.700697 183.345517,292.644446 Z" id="Shape"></path>
        </g>
    </g>
</svg>