<svg xmlns="http://www.w3.org/2000/svg" xmlns:xlink="http://www.w3.org/1999/xlink" width="90" height="90" viewBox="0 0 90 90">
    <defs>
        <circle id="a" cx="45" cy="45" r="45"/>
        <filter id="c" width="123.5%" height="130.8%" x="-5.6%" y="-5.9%" filterUnits="objectBoundingBox">
            <feOffset dx="1" dy="1" in="SourceAlpha" result="shadowOffsetOuter1"/>
            <feColorMatrix in="shadowOffsetOuter1" result="shadowMatrixOuter1" values="0 0 0 0 0 0 0 0 0 0 0 0 0 0 0 0 0 0 0.25 0"/>
            <feMerge>
                <feMergeNode in="shadowMatrixOuter1"/>
                <feMergeNode in="SourceGraphic"/>
            </feMerge>
        </filter>
        <filter id="d" width="123.5%" height="130.8%" x="-5.6%" y="-5.9%" filterUnits="objectBoundingBox">
            <feOffset dx="1" dy="1" in="SourceAlpha" result="shadowOffsetOuter1"/>
            <feColorMatrix in="shadowOffsetOuter1" result="shadowMatrixOuter1" values="0 0 0 0 0 0 0 0 0 0 0 0 0 0 0 0 0 0 0.25 0"/>
            <feMerge>
                <feMergeNode in="shadowMatrixOuter1"/>
                <feMergeNode in="SourceGraphic"/>
            </feMerge>
        </filter>
        <path id="f" d="M14.393 39.74c.85 0 1.538-.687 1.538-1.534 0-.846-1.538-2.725-1.538-2.725s-1.538 1.879-1.538 2.725c0 .847.689 1.534 1.538 1.534"/>
        <filter id="e" width="165%" height="147%" x="-16.3%" y="-11.7%" filterUnits="objectBoundingBox">
            <feOffset dx="1" dy="1" in="SourceAlpha" result="shadowOffsetOuter1"/>
            <feColorMatrix in="shadowOffsetOuter1" values="0 0 0 0 0 0 0 0 0 0 0 0 0 0 0 0 0 0 0.3 0"/>
        </filter>
        <path id="g" d="M2.996 33.902c.877.009 1.829.275 2.864.867 1.539.878 2.752 2.19 4.29 3.067.762.433 1.607.88 2.457 1.082.776.183 1.75-.144 2.31-.008 1.25.302 2.369 1.602 1.857 3.437-.599 2.148-2.835 1.859-4.046 3-.07.066 2.23.65 3.474.367 1.888 4.144-5.393 6.848-8.054 5.933.946.913 2.61 1.376 3.902 1.179.249 1.388-1.46 2.984-2.947 3.923-3.913-2.633-6.686-9.205-6.686-16.896 0-2.085.204-4.087.579-5.951z"/>
        <filter id="h" width="224%" height="163%" x="-75.6%" y="-55.5%" filterUnits="objectBoundingBox">
            <feOffset dx="1" dy="1" in="SourceAlpha" result="shadowOffsetOuter1"/>
            <feColorMatrix in="shadowOffsetOuter1" values="0 0 0 0 0 0 0 0 0 0 0 0 0 0 0 0 0 0 0.2 0"/>
        </filter>
    </defs>
    <g fill="none" fill-rule="evenodd">
        <circle cx="45" cy="45" r="45" fill="#F6A623"/>
        <mask id="b" fill="#fff">
            <use xlink:href="#a"/>
        </mask>
        <path fill="#973B29" d="M13.163 70.963c2.388 1.73 4.852 3.024 7.621 4.04 2.74 1.003 5.554 1.668 8.435 2.123 5.918.932 11.94 1.027 17.917.983 5.869-.045 11.743-.173 17.61-.323 6.577-.167 13.162.272 19.733.056 5.776-.189 11.643-.435 17.416-.059.874.057 1.728-.072 2.595-.191 2.678-.372 5.69-.644 8.078-1.955.487-.268.424-1.133-.162-1.24-2.362-.429-4.773.137-7.115.512-.566.09-1.128.202-1.693.3-.185.031-.372.063-.558.09-.311.05.217-.017-.226.03-1.685.175-3.458-.02-5.15.013-3.166.062-6.318.139-9.483.087-3.426-.056-6.862-.284-10.285-.454-6.255-.31-12.417-1.471-18.696-1.46-7.713.014-15.415.47-23.129.218-7.617-.25-15.283-1.393-22.628-3.435-.42-.117-.6.434-.28.665" mask="url(#b)"/>
        <g mask="url(#b)">
            <g transform="translate(17.137 13)">
                <path fill="#5E1A11" d="M3.585 9.135c4.747-.78 6.48-3.106 16.124-2.013L13.03 24.335 7.034 25.67S2.94 17.761 3.585 9.135zM54.424 3.282c-2.991 0-3.729.672-10.656 3.054l3.987 8.767 2.9 2.483c12.275 2.465 5.646-8.981 3.77-14.304z"/>
                <circle cx="33.136" cy="33.136" r="29.574" fill="#5E1A11"/>
                <path fill="#E61E21" d="M53.575 38.26l.002.133c0 11.434-9.226 22.791-20.66 22.791-10.91 0-19.848-7.3-20.645-17.9-4.46-2.725-7.438-7.639-7.438-13.248 0-8.567 6.944-15.512 15.511-15.512 5.66 0 10.613 3.032 13.322 7.56 1.894-5.212 6.893-8.936 12.76-8.936C53.923 13.148 60 19.225 60 26.721c0 4.873-2.568 9.146-6.425 11.54z" opacity=".25"/>
                <path fill="#E61E21" fill-opacity=".5" d="M34.11 56.655c7.136 0 12.92-5.785 12.92-12.92 0-7.137-3.48-8.755-10.617-8.755-7.136 0-15.224 1.618-15.224 8.754 0 7.136 5.785 12.921 12.92 12.921z"/>
                <path fill="#790607" d="M28.912 45.791c-.278.054-.471-.005-.858.137-.443.16-.83.338-1.31.37-1.083.07-1.333-.782-2.22-1.112-.342-.127-.73.141-.82.468-.73 2.636 5.245 3.272 5.632.466.033-.233-.233-.365-.424-.329M36.545 49.607c-.278.054-.472-.005-.86.137-.442.16-.83.338-1.31.37-1.082.07-1.332-.782-2.219-1.112-.342-.127-.73.141-.82.468-.73 2.636 5.245 3.272 5.632.466.033-.233-.233-.365-.423-.329M43.318 45.928c-.443.16-.83.338-1.31.37-1.082.07-1.333-.782-2.22-1.112-.342-.127-.73.141-.82.468-.73 2.636 5.245 3.272 5.633.466.032-.233-.234-.365-.424-.329-.278.054-.472-.005-.86.137z" opacity=".5"/>
                <g fill="#F6A623" filter="url(#c)" transform="translate(14.501 55.333)">
                    <rect width="2.968" height="5.936" rx="1.484"/>
                    <rect width="2.968" height="5.936" x="2.968" y="1.484" rx="1.484"/>
                    <rect width="2.968" height="5.936" x="5.936" y="2.473" rx="1.484"/>
                </g>
                <g fill="#F6A623" filter="url(#d)" transform="matrix(-1 0 0 1 52.025 55.841)">
                    <rect width="2.968" height="5.936" rx="1.484"/>
                    <rect width="2.968" height="5.936" x="2.968" y="1.484" rx="1.484"/>
                    <rect width="2.968" height="5.936" x="5.936" y="2.473" rx="1.484"/>
                </g>
                <path fill="#5E1A11" d="M20.034 35.424c5.515 0 9.986-1.475 9.986-6.99 0-5.515-4.471-9.985-9.986-9.985-5.514 0-9.985 4.47-9.985 9.985s4.47 6.99 9.985 6.99z"/>
                <path fill="#801B14" d="M19.843 33.07c5.972 0 10.813-1.597 10.813-7.568S25.815 14.69 19.843 14.69c-5.97 0-10.812 4.84-10.812 10.812 0 5.971 4.841 7.568 10.812 7.568z"/>
                <path fill="#5E1A11" d="M47.16 33.708c5.532 0 10.017-2.258 10.017-7.79 0-5.533-4.485-10.018-10.017-10.018-5.532 0-10.017 4.485-10.017 10.017 0 5.533 4.485 7.791 10.017 7.791z"/>
                <path fill="#801B14" d="M46.047 31.164c6.323 0 11.448-2.581 11.448-8.904 0-6.322-5.125-6.36-11.448-6.36s-11.448.038-11.448 6.36c0 6.323 5.125 8.904 11.448 8.904z"/>
                <g fill="#F6A623">
                    <path d="M31.25 36.444s1.978-1.087 2.345 1.903c.135 1.1 2.084.673 2.002 0-.368-2.99 2.04-2.687 2.04-2.687-.665-5.41-4.042-6.514-4.042-6.514s-3.01 1.887-2.346 7.298z"/>
                </g>
            </g>
            <path fill="#49B8E2" d="M37.384 48.22s-4.565-.237-5.882-.642c-1.317-.404-1.046 1.846 1.597 1.84 2.643-.007 4.348-.204 5.966 0 1.617.204 4.971-1.335 4.971-2.185 0-.85-6.652.987-6.652.987z"/>
            <g transform="translate(17.137 13)">
                <use fill="#000" filter="url(#e)" xlink:href="#f"/>
                <use fill="#49B8E2" xlink:href="#f"/>
            </g>
            <path stroke="#FFF" stroke-linecap="round" stroke-linejoin="round" d="M32.569 50.996s.027.877-.78 1.11" opacity=".5"/>
            <path fill="#49B8E2" d="M65.384 46.394s4.502-.792 5.76-1.354 1.263 1.705-1.361 2.02c-2.624.316-4.341.328-5.922.727-1.58.4-5.096-.718-5.2-1.562-.104-.844 6.723.169 6.723.169z"/>
            <g>
                <path fill="#4A4A4A" d="M5.124 35.293c-1.723.461-2.715 2.346-2.214 4.216l9.371 34.975c.5 1.867 2.301 3.006 4.026 2.544l15.535-4.163c1.723-.461 2.715-2.346 2.214-4.216l-9.371-34.975c-.5-1.867-2.301-3.006-4.026-2.544L5.124 35.293z"/>
                <path fill="#4990E2" d="M13.762 71.843l17.692-4.74-8.25-30.788-17.692 4.74z"/>
                <path fill="#FFF" d="M20.57 55.268l-2.095.561-2.376-7.546 2.755-.738 1.715 7.723zm-1.865 3.049a1.233 1.233 0 0 1 .161-1.042c.209-.317.517-.53.927-.64.409-.109.783-.079 1.122.09.338.17.559.444.66.823.101.378.048.726-.16 1.042-.21.317-.518.53-.927.64-.41.109-.784.079-1.122-.09a1.233 1.233 0 0 1-.66-.823z"/>
                <path fill="#9B9B9B" fill-opacity=".25" d="M10.903 36.678c.101.377.417.621.725.539l4.36-1.169c.3-.08.457-.462.359-.83-.101-.377-.417-.62-.725-.538l-4.36 1.168c-.3.08-.457.463-.359.83zM23.708 73.578a1.413 1.413 0 0 0 .994-1.733 1.413 1.413 0 0 0-1.727-1.004 1.413 1.413 0 0 0-.995 1.734 1.413 1.413 0 0 0 1.728 1.003z"/>
            </g>
            <g transform="translate(2 13)">
                <use fill="#000" filter="url(#h)" xlink:href="#g"/>
                <use fill="#5E1A11" xlink:href="#g"/>
            </g>
        </g>
    </g>
</svg>
