<?xml version="1.0" encoding="UTF-8"?>
<svg width="101px" height="100px" viewBox="0 0 101 100" version="1.1" xmlns="http://www.w3.org/2000/svg" xmlns:xlink="http://www.w3.org/1999/xlink">
    <!-- Generator: sketchtool 42 (36781) - http://www.bohemiancoding.com/sketch -->
    <title>E55AB0A0-9F14-4FB1-AA87-861A04386B5A</title>
    <desc>Created with sketchtool.</desc>
    <defs></defs>
    <g id="Page-1-Copy-3" stroke="none" stroke-width="1" fill="none" fill-rule="evenodd" opacity="0.25">
        <g id="45-anotacoes-vazio" transform="translate(-153.000000, -191.000000)" fill="#4A4A4A">
            <path d="M239.82677,224.890128 L198.025974,266.740394 L198.025974,266.740394 L188.375728,257.090147 L230.19829,215.261649 L239.82677,224.890128 L239.82677,224.890128 Z M242.444135,222.269665 L248.848501,215.857719 C250.292848,214.411663 250.282204,212.061127 248.830741,210.613648 L244.461061,206.255963 C243.006906,204.805799 240.663917,204.794536 239.214491,206.244168 L232.817018,212.642549 L242.444135,222.269665 L242.444135,222.269665 Z M185.976689,259.928937 L183.608001,271.457446 L195.218757,269.171005 L185.976689,259.928937 L185.976689,259.928937 L185.976689,259.928937 Z M223.37037,216.925926 L223.37037,216.925926 L201.148148,191 L160.41763,191 C156.320986,191 153,194.327179 153,198.434555 L153,283.565445 C153,287.671436 156.299724,291 160.397859,291 L215.972511,291 C220.058236,291 223.37037,287.673287 223.37037,283.626685 L223.37037,246.555556 L251.44484,218.481086 C254.34923,215.576696 254.356252,210.874771 251.480554,207.999073 L247.112039,203.630557 C244.227373,200.745891 239.565856,200.730441 236.630025,203.666271 L223.37037,216.925926 L223.37037,216.925926 L223.37037,216.925926 Z M219.666667,250.259259 L219.666667,283.617046 C219.666667,285.648347 218.008528,287.296296 215.96311,287.296296 L160.40726,287.296296 C158.387811,287.296296 156.703704,285.645625 156.703704,283.609419 L156.703704,198.390582 C156.703704,196.389863 158.354575,194.703704 160.391028,194.703704 L197.444444,194.703704 L197.444444,213.2003 C197.444444,217.346093 200.757393,220.62963 204.844123,220.62963 L219.666667,220.62963 L182.62963,257.666667 L178.925926,276.185185 L197.444444,272.481481 L219.666667,250.259259 L219.666667,250.259259 L219.666667,250.259259 Z M201.148148,196.555556 L201.148148,213.189686 C201.148148,215.253154 202.817226,216.925926 204.839773,216.925926 L218.555375,216.925926 L201.148148,196.555556 L201.148148,196.555556 Z" id="document-edit"></path>
        </g>
    </g>
</svg>