<?xml version="1.0" encoding="UTF-8"?>
<svg width="24px" height="20px" viewBox="0 0 24 20" version="1.1" xmlns="http://www.w3.org/2000/svg" xmlns:xlink="http://www.w3.org/1999/xlink">
    <!-- Generator: sketchtool 42 (36781) - http://www.bohemiancoding.com/sketch -->
    <title>89AC5F28-882E-414B-89C5-8D2767157BFE</title>
    <desc>Created with sketchtool.</desc>
    <defs></defs>
    <g id="Page-1" stroke="none" stroke-width="1" fill="none" fill-rule="evenodd">
        <g id="Icons" transform="translate(-2562.000000, -813.000000)" fill="#FFFFFF">
            <path d="M2575.68015,827.119477 C2576.20247,827.117955 2576.59461,827.532277 2576.59527,828.092912 C2576.59674,829.403833 2576.59669,830.714805 2576.59532,832.025727 C2576.59466,832.620059 2576.2252,832.997537 2575.63651,832.997841 C2571.42462,832.999871 2567.21268,833.000734 2563.00079,832.999262 C2562.36829,832.99911 2562,832.619348 2562,831.982589 C2562.00046,826.011505 2562.00091,820.040472 2562.00416,814.069387 C2562.00426,813.918914 2562.01411,813.761691 2562.0575,813.619236 C2562.17169,813.244853 2562.51948,813.000899 2562.92268,813.000797 C2567.16842,812.999681 2571.41416,812.999528 2575.65995,813.001711 C2576.21906,813.001964 2576.59405,813.382944 2576.59497,813.944543 C2576.59725,815.323164 2576.59715,816.701786 2576.59507,818.080408 C2576.59421,818.626782 2576.20699,819.03065 2575.68883,819.035014 C2575.16463,819.039379 2574.77137,818.625665 2574.77091,818.067111 C2574.7702,817.077539 2574.77061,816.088017 2574.77051,815.098444 L2574.77051,814.841649 L2563.86151,814.841649 L2563.86151,831.153843 L2574.77071,831.153843 L2574.77071,830.888776 C2574.77071,829.958428 2574.7699,829.028081 2574.77107,828.097733 C2574.77178,827.532886 2575.15606,827.121051 2575.68015,827.119477 Z M2585.13156,822.358104 C2585.51087,822.741367 2585.50275,823.268304 2585.12197,823.651923 C2583.76954,825.014406 2582.41264,826.372423 2581.05096,827.725569 C2580.66283,828.111268 2580.10311,828.101169 2579.73532,827.727649 C2579.3884,827.375293 2579.38982,826.799129 2579.7574,826.426726 C2580.5119,825.66233 2581.27543,824.906968 2582.03465,824.147242 C2582.09743,824.084464 2582.15559,824.017068 2582.25227,823.912473 C2582.10281,823.912473 2574.482,823.912828 2570.76949,823.912016 C2570.32223,823.911915 2569.965,823.653445 2569.85193,823.25587 C2569.73987,822.862 2569.89542,822.423064 2570.25772,822.228083 C2570.42028,822.140641 2570.6251,822.093392 2570.8109,822.092986 C2574.48113,822.085425 2582.07134,822.087455 2582.25247,822.087455 C2582.1534,821.979662 2582.09108,821.906785 2582.02354,821.839135 C2581.27071,821.085042 2580.51702,820.331812 2579.76369,819.578277 C2579.49314,819.307627 2579.41595,818.981661 2579.52684,818.623468 C2579.63996,818.257916 2579.9097,818.052633 2580.28388,817.998736 C2580.56772,817.957882 2580.82503,818.046086 2581.02676,818.247157 C2582.39817,819.614309 2583.76938,820.981766 2585.13156,822.358104 Z" id="Combined-Shape"></path>
        </g>
    </g>
</svg>