<?xml version="1.0" encoding="UTF-8" standalone="no"?>
<svg width="20px" height="17px" viewBox="0 0 20 17" version="1.1" xmlns="http://www.w3.org/2000/svg" xmlns:xlink="http://www.w3.org/1999/xlink">
    <!-- Generator: sketchtool 41.2 (35397) - http://www.bohemiancoding.com/sketch -->
    <title>8387F996-A18D-4231-BBD5-4C6D03146617</title>
    <desc>Created with sketchtool.</desc>
    <defs></defs>
    <g id="Chat-2" stroke="none" stroke-width="1" fill="none" fill-rule="evenodd" opacity="0.5">
        <g id="Chat-1" transform="translate(-619.000000, -696.000000)" fill="#565151">
            <path d="M624.825136,705.466541 L634.784299,699.183249 C635.281504,698.881692 635.737354,699.043832 635.363052,699.37603 L626.83538,707.070137 L626.503387,710.611642 L624.825136,705.466541 Z M637.64974,696.110901 L619.933687,702.944012 C618.724524,703.429137 618.73169,704.103563 619.713269,704.404302 L624.131739,705.783384 L625.822342,710.966632 C626.027816,711.533919 625.926546,711.75891 626.522222,711.75891 C626.981962,711.75891 627.185934,711.549342 627.441974,711.29917 C627.604797,711.139827 628.571568,710.199944 629.651073,709.150397 L634.247038,712.54607 C635.092817,713.012702 635.703438,712.770993 635.91403,711.760616 L638.930965,697.543758 C639.239824,696.305388 638.458874,695.743696 637.64974,696.110901 L637.64974,696.110901 Z" id="send"></path>
        </g>
    </g>
</svg>