<?xml version="1.0" encoding="UTF-8"?>
<svg width="22px" height="18px" viewBox="0 0 22 18" version="1.1" xmlns="http://www.w3.org/2000/svg" xmlns:xlink="http://www.w3.org/1999/xlink">
    <!-- Generator: sketchtool 42 (36781) - http://www.bohemiancoding.com/sketch -->
    <title>A4225551-38BE-4CAD-8A37-81351B2A9D5B</title>
    <desc>Created with sketchtool.</desc>
    <defs></defs>
    <g id="Page-1" stroke="none" stroke-width="1" fill="none" fill-rule="evenodd">
        <g id="Icons" transform="translate(-2430.000000, -1243.000000)" fill="#FFFFFF">
            <g id="SNT" transform="translate(2355.000000, 979.000000)">
                <g id="Group-3">
                    <g id="1480029523_icon-92-inbox-download" transform="translate(75.000000, 264.000000)">
                        <g id="Group">
                            <g id="Page-1">
                                <g id="icon-92-inbox-download">
                                    <path d="M20.3785923,10.2857143 L16.6285923,4.28571429 L13.7142857,4.28571429 L13.7142857,3.42857143 L17.1428571,3.42857143 L21.4285714,10.2857143 L21.4285714,11.1428571 L21.4285714,14.9923573 C21.4285714,16.6534325 20.0881183,18 18.4264573,18 L3.00211413,18 C1.34409228,18 0,16.656274 0,14.9953665 L0,10.2857143 L4.28571429,3.42857143 L7.71428571,3.42857143 L7.71428571,4.28571429 L4.79997908,4.28571429 L1.04997908,10.2857143 L6.85714286,10.2857143 L6.85714286,12 C6.85714286,12.9467739 7.62502097,13.7142857 8.56919289,13.7142857 L12.8593785,13.7142857 C13.8049177,13.7142857 14.5714286,12.9533746 14.5714286,12 L14.5714286,10.2857143 L20.3785923,10.2857143 Z" id="inbox-download"></path>
                                    <path d="M10.9798654,9.46583851 C10.7115424,9.79378882 10.2941511,9.5552795 10.2941511,9.5552795 C10.2941511,9.5552795 7.67054865,6.66335404 7.37241201,6.15652174 C7.07427536,5.67950311 7.64073499,5.59006211 7.64073499,5.59006211 L9.07179089,5.59006211 L9.07179089,0.298136646 C9.07179089,0.119254658 9.19104555,0 9.36992754,0 L11.7550207,0 C11.9339027,0 12.0531573,0.119254658 12.0531573,0.298136646 L12.0531573,0.712223408 C12.0531573,1.76674107 12.0531573,5.59006211 12.0531573,5.59006211 L13.4543996,5.59006211 C14.1699275,5.59006211 13.8121636,6.1863354 13.8121636,6.1863354 C13.8121636,6.1863354 11.2183747,9.1378882 10.9798654,9.46583851 Z" id="Shape"></path>
                                </g>
                            </g>
                        </g>
                    </g>
                </g>
            </g>
        </g>
    </g>
</svg>