<svg xmlns="http://www.w3.org/2000/svg" width="33" height="30" viewBox="0 0 33 30">
    <path fill="#FFF" fill-rule="nonzero" d="M3.935 0h25.871C31.573 0 33 1.476 33 3.234V28.29c0 1.468-1.79 2.218-2.823 1.178l-4.742-4.734a1.806 1.806 0 0 0-1.266-.549H4.01c-1.791 0-3.259-1.427-3.259-3.217V3.226C.742 1.476 2.17 0 3.935 0zm21.568 7.613H8.153c-.41 0-.748.448-.748 1s.338 1 .748 1h17.35c.41 0 .748-.448.748-1s-.333-1-.748-1zM11.766 17.677h13.742c.41 0 .748-.448.748-1 0-.551-.338-1-.748-1H11.766c-.41 0-.748.449-.748 1 0 .552.333 1 .748 1zm-3.644-4.032h17.38c.41 0 .744-.448.744-1s-.333-1-.743-1H8.123c-.41 0-.744.448-.744 1s.333 1 .743 1z"/>
</svg>
