<?xml version="1.0" encoding="UTF-8"?>
<svg width="30px" height="30px" viewBox="0 0 30 30" version="1.1" xmlns="http://www.w3.org/2000/svg" xmlns:xlink="http://www.w3.org/1999/xlink">
    <!-- Generator: sketchtool 41.2 (35397) - http://www.bohemiancoding.com/sketch -->
    <title>9769108E-E403-406E-9952-B365CE4DF765</title>
    <desc>Created with sketchtool.</desc>
    <defs></defs>
    <g id="Page-1" stroke="none" stroke-width="1" fill="none" fill-rule="evenodd">
        <g id="Icons" transform="translate(-1689.000000, -713.000000)">
            <g id="telegram" transform="translate(1689.000000, 713.000000)">
                <circle id="Oval-5" fill="#FFFFFF" cx="14.375" cy="13.125" r="11.875"></circle>
                <path d="M15,0 C6.71567797,0 0,6.71567797 0,15 L0,15 C0,23.284322 6.71567797,30 15,30 L15,30 C23.284322,30 30,23.284322 30,15 L30,15 C30,6.71567797 23.284322,0 15,0 Z M10.1857627,16.2722034 L6.52538136,15.0795763 C6.52538136,15.0795763 6.08834746,14.9021186 6.22881356,14.4995339 L6.22881356,14.4995339 C6.25766949,14.4163983 6.31614407,14.3459746 6.4909322,14.2240678 L6.4909322,14.2240678 C7.30207627,13.6587712 21.5042797,8.5540678 21.5042797,8.5540678 L21.5042797,8.5540678 C21.5042797,8.5540678 21.9052119,8.4190678 22.142161,8.50894068 L22.142161,8.50894068 C22.2504661,8.54987288 22.3196186,8.59627119 22.377839,8.76572034 L22.377839,8.76572034 C22.3990678,8.82737288 22.4112712,8.95855932 22.4096186,9.08885593 L22.4096186,9.08885593 C22.4084746,9.18292373 22.3969068,9.27 22.3885169,9.40665254 L22.3885169,9.40665254 C22.3019492,10.8022881 19.7139407,21.2182627 19.7139407,21.2182627 L19.7139407,21.2182627 C19.7139407,21.2182627 19.5591102,21.8277966 19.0042373,21.8485169 L19.0042373,21.8485169 C18.8019915,21.8561441 18.5562712,21.8150847 18.2626271,21.5625 L18.2626271,21.5625 C17.6783898,21.0597458 16.3235593,20.0986017 15.0650847,19.2294915 L15.0650847,19.2294915 C14.6848729,19.5490678 13.9257203,20.2056356 13.1408898,20.9904661 L13.1408898,20.9904661 C12.0286017,22.1028814 12.1716102,20.9904661 12.1716102,20.9904661 L12.1716102,20.9904661 L12.5133051,17.3597034 L12.521822,17.3647881 C12.5374576,17.3277966 12.5625,17.297161 12.5625,17.297161 L12.5625,17.297161 C12.5625,17.297161 19.1158475,11.4720763 19.2902542,10.8607627 L19.2902542,10.8607627 C19.3037288,10.8134746 19.2530085,10.7899576 19.1842373,10.8104237 L19.1842373,10.8104237 C18.7489831,10.9705932 11.2037288,15.7351271 10.3711017,16.2612712 L10.3711017,16.2612712 C10.3497458,16.2747458 10.3116102,16.2784322 10.2755085,16.2784322 L10.2755085,16.2784322 C10.2289831,16.2784322 10.1857627,16.2722034 10.1857627,16.2722034 L10.1857627,16.2722034 Z" id="Page-1" fill="#139BD0"></path>
            </g>
        </g>
    </g>
</svg>