<?xml version="1.0" encoding="UTF-8"?>
<svg width="30px" height="18px" viewBox="0 0 30 18" version="1.1" xmlns="http://www.w3.org/2000/svg" xmlns:xlink="http://www.w3.org/1999/xlink">
    <!-- Generator: sketchtool 41.2 (35397) - http://www.bohemiancoding.com/sketch -->
    <title>F6A17DF5-69E8-49B6-BCA3-178F0055B5FF</title>
    <desc>Created with sketchtool.</desc>
    <defs></defs>
    <g id="Page-1" stroke="none" stroke-width="1" fill="none" fill-rule="evenodd">
        <g id="Icons" transform="translate(-1689.000000, -449.000000)" fill="#FFFFFF">
            <path d="M1706.31646,449 L1692.59206,449 C1690.6114,449 1689,450.611396 1689,452.592056 L1689,462.763704 C1689,464.744364 1690.6114,466.35576 1692.59206,466.35576 L1706.31646,466.35576 C1708.29712,466.35576 1709.90852,464.744364 1709.90852,462.763704 L1709.90852,452.592056 C1709.90852,450.611396 1708.29712,449 1706.31646,449 M1718.99974,451.876439 C1718.98573,451.034547 1718.48675,450.303218 1717.69763,449.968165 C1716.8821,449.622413 1715.94173,449.784094 1715.30187,450.382341 L1712.23152,453.251521 C1711.78788,453.665169 1711.53334,454.250536 1711.53334,454.857832 L1711.53334,460.497321 C1711.53334,461.104088 1711.78762,461.689455 1712.23099,462.103631 L1715.31396,464.984568 C1715.73236,465.375759 1716.27487,465.582352 1716.83104,465.582352 C1717.08473,465.582352 1717.34151,465.539092 1717.59071,465.450986 C1718.34977,465.182178 1718.86811,464.555796 1718.97642,463.77678 C1718.99188,463.666747 1719,463.55394 1719,463.438888 L1718.99974,451.876439 Z" id="Combined-Shape"></path>
        </g>
    </g>
</svg>