<svg xmlns="http://www.w3.org/2000/svg" width="29" height="29" viewBox="0 0 29 29">
    <g fill="none" fill-rule="evenodd" transform="translate(1 1)">
        <path fill="#FFF" stroke="#FFF" stroke-width=".5" d="M11 0C4.925 0 0 4.925 0 11s4.925 11 11 11 11-4.925 11-11S17.075 0 11 0zm0 20a9 9 0 1 1 0-18 9 9 0 0 1 0 18z"/>
        <circle cx="20.5" cy="20.5" r="7.5" fill="#7ED321"/>
        <path fill="#FFF" d="M23.875 19.375h-2.25v-2.25a1.125 1.125 0 0 0-2.25 0l.04 2.25h-2.29a1.125 1.125 0 0 0 0 2.25l2.29-.04-.04 2.29a1.125 1.125 0 0 0 2.25 0v-2.29l2.25.04a1.125 1.125 0 0 0 0-2.25z"/>
        <path fill="#FFF" stroke="#FFF" stroke-width=".5" d="M11.662 11.473V6.831a.831.831 0 0 0-1.662 0v4.987c0 .058.006.11.016.162.005.026.015.049.022.074.008.027.014.055.025.082.012.028.029.055.044.082.01.02.02.041.033.06a.81.81 0 0 0 .104.128l2.35 2.35a.831.831 0 0 0 1.176-1.175l-2.108-2.108z"/>
    </g>
</svg>
