<?xml version="1.0" encoding="UTF-8"?>
<svg width="20px" height="14px" viewBox="0 0 20 14" version="1.1" xmlns="http://www.w3.org/2000/svg" xmlns:xlink="http://www.w3.org/1999/xlink">
    <!-- Generator: sketchtool 41.2 (35397) - http://www.bohemiancoding.com/sketch -->
    <title>EE8997E3-2DB4-4B8E-8756-01291506214A</title>
    <desc>Created with sketchtool.</desc>
    <defs></defs>
    <g id="Page-1" stroke="none" stroke-width="1" fill="none" fill-rule="evenodd">
        <g id="Visitantes_2" transform="translate(-1370.000000, -104.000000)" fill="#FFFFFF">
            <path d="M1372.94311,110.053435 C1372.94311,110.053435 1377.26147,105.745798 1377.53627,105.453569 C1377.98454,104.976918 1377.78153,104.215147 1377.15865,104.036575 C1376.79589,103.932609 1376.49804,104.057334 1376.23483,104.32135 C1374.27988,106.28226 1372.32052,108.238755 1370.36265,110.196798 C1369.88101,110.678495 1369.87912,111.145799 1370.35703,111.623769 C1372.3102,113.577167 1376.3201,117.589305 1376.37733,117.635009 C1376.85719,118.018245 1377.56666,117.803431 1377.73858,117.215416 C1377.84163,116.863032 1377.73468,116.56392 1377.47457,116.304721 C1376.02483,114.859973 1372.95166,111.773439 1372.95166,111.773439 C1372.95166,111.773439 1389.27059,111.758013 1389.28676,111.755433 C1389.67218,111.693959 1389.95374,111.39697 1389.99486,111.006336 C1390.03867,110.590012 1389.79925,110.210618 1389.40065,110.097591 C1389.26222,110.058367 1372.94311,110.053435 1372.94311,110.053435 Z" id="Fill-1"></path>
        </g>
    </g>
</svg>