<?xml version="1.0" encoding="UTF-8" standalone="no"?>
<svg width="27px" height="22px" viewBox="0 0 27 22" version="1.1" xmlns="http://www.w3.org/2000/svg" xmlns:xlink="http://www.w3.org/1999/xlink">
    <!-- Generator: sketchtool 41.2 (35397) - http://www.bohemiancoding.com/sketch -->
    <title>47712055-184A-4997-B576-9BDBD1BDABF7</title>
    <desc>Created with sketchtool.</desc>
    <defs></defs>
    <g id="Chat-2" stroke="none" stroke-width="1" fill="none" fill-rule="evenodd">
        <g id="Inbox-Ordenar" transform="translate(-17.000000, -439.000000)" fill="#565151">
            <path d="M43.9570054,448.964316 C43.9315664,448.796139 43.9059039,448.627907 43.8838195,448.45973 C43.6614664,446.779474 42.9093682,445.23821 41.6484353,443.878428 C39.9436906,442.040451 37.7303348,440.785891 34.8825149,440.043018 C33.1789444,439.599039 31.3594729,439.427508 29.4746988,439.53491 C26.370309,439.710914 23.7376859,440.551406 21.4259848,442.104076 C19.9013255,443.127951 18.7845838,444.317208 18.0110722,445.739944 C17.4397303,446.791383 17.121436,447.880114 17.0670358,448.962191 C17.0648553,448.974995 17.0608298,448.987574 17.0513252,449.020841 C17.0391927,449.062885 17.0275635,449.104482 17.0147602,449.170288 L17,449.726142 L17.0425473,450.048798 C17.0655822,450.19489 17.0881697,450.341429 17.1078499,450.487801 C17.2872085,451.832599 17.8043738,453.072901 18.6878599,454.277533 C18.3441267,455.479593 18.0041953,456.682603 17.6639844,457.885614 L17.4081413,458.786432 C17.3794037,458.880752 17.3523433,458.975742 17.3366327,459.072466 C17.2632232,459.519521 17.4123904,459.948349 17.735493,460.219399 C17.9509692,460.400379 18.2217961,460.496152 18.5189565,460.496152 C18.6776284,460.496152 18.8380336,460.468086 18.995755,460.413015 C19.6544839,460.182778 20.3123182,459.950249 20.9703202,459.717665 L22.4976073,459.178136 C23.1732209,458.939401 23.8488345,458.700443 24.5482097,458.462882 C25.9800029,458.966741 27.4611645,459.284085 28.9511038,459.406471 C32.3498585,459.684399 35.4870672,459.096228 38.2741132,457.658508 C40.3525028,456.586383 41.8624578,455.201889 42.8896321,453.425188 C43.5289043,452.319573 43.8807445,451.165316 43.9337469,450.007648 C43.9356479,449.994621 43.939897,449.981762 43.9494017,449.949949 C43.9610309,449.908352 43.9724365,449.866811 43.9852957,449.801732 L44,449.295693 L43.9570054,448.964316 Z" id="Fill-1"></path>
        </g>
    </g>
</svg>
