<svg xmlns="http://www.w3.org/2000/svg" width="16" height="16" viewBox="0 0 16 16">
    <path fill="#565151" fill-rule="nonzero" d="M2.087 4.174a2.087 2.087 0 1 1 0-4.174 2.087 2.087 0 0 1 0 4.174zm5.913 0A2.087 2.087 0 1 1 8 0a2.087 2.087 0 0 1 0 4.174zm5.913 0a2.087 2.087 0 1 1 0-4.174 2.087 2.087 0 0 1 0 4.174zM2.087 10.087a2.087 2.087 0 1 1 0-4.174 2.087 2.087 0 0 1 0 4.174zm5.913 0a2.087 2.087 0 1 1 0-4.174 2.087 2.087 0 0 1 0 4.174zm5.913 0a2.087 2.087 0 1 1 0-4.174 2.087 2.087 0 0 1 0 4.174zM2.087 16a2.087 2.087 0 1 1 0-4.174 2.087 2.087 0 0 1 0 4.174zM8 16a2.087 2.087 0 1 1 0-4.174A2.087 2.087 0 0 1 8 16zm5.913 0a2.087 2.087 0 1 1 0-4.174 2.087 2.087 0 0 1 0 4.174z" opacity=".5"/>
</svg>
