<svg xmlns="http://www.w3.org/2000/svg" width="42" height="27" viewBox="0 0 42 27">
    <g fill="none" fill-rule="evenodd">
        <g fill="#FFF" fill-rule="nonzero">
            <path d="M30.613 4.448c-1.267 0-2.485.174-3.613.48a13.357 13.357 0 0 0-1.81-1.65C22.406 1.183 18.724.028 14.812.028S7.218 1.183 4.434 3.278C1.58 5.43.007 8.311.007 11.394c0 2.047.71 4.051 2.06 5.799 1.177 1.524 2.82 2.826 4.761 3.78l.014 4.3c0 .822.543 1.497 1.344 1.678a2 2 0 0 0 .403.049c.62 0 6.042-4.239 6.042-4.239h.181c3.912 0 7.601-1.155 10.385-3.25.14-.105.272-.21.404-.314 1.49.62 3.202.968 5.018.968.154 0 .307 0 .46-.007 0 0 4.851 3.47 4.851 2.789l.014-3.882c3.063-1.371 5.11-3.884 5.11-6.759 0-4.343-4.671-7.858-10.441-7.858zM14.227 21.007l-.466-.014-5.165 4.204-.028-5.345-.515-.23c-1.907-.856-3.508-2.067-4.608-3.494-1.113-1.441-1.698-3.077-1.698-4.734 0-5.304 5.86-9.62 13.065-9.62 7.204 0 13.065 4.316 13.065 9.62 0 5.304-5.854 9.627-13.065 9.627-.18 0-.376-.007-.585-.014z"/>
            <circle cx="20.286" cy="11.738" r="1.75"/>
            <circle cx="14.718" cy="11.738" r="1.75"/>
            <circle cx="9.149" cy="11.738" r="1.75"/>
        </g>
        <path stroke="#FFF" d="M14.227 21.007l-.466-.014-5.165 4.204-.028-5.345-.515-.23c-1.907-.856-3.508-2.067-4.608-3.494-1.113-1.441-1.698-3.077-1.698-4.734 0-5.304 5.86-9.62 13.065-9.62 7.204 0 13.065 4.316 13.065 9.62 0 5.304-5.854 9.627-13.065 9.627-.18 0-.376-.007-.585-.014z"/>
    </g>
</svg>
