<svg xmlns="http://www.w3.org/2000/svg" xmlns:xlink="http://www.w3.org/1999/xlink" width="90" height="90" viewBox="0 0 90 90"><defs><circle id="a" cx="45" cy="45" r="45"/><filter id="c" width="123.5%" height="130.8%" x="-5.6%" y="-5.9%" filterUnits="objectBoundingBox"><feOffset dx="1" dy="1" in="SourceAlpha" result="shadowOffsetOuter1"/><feColorMatrix in="shadowOffsetOuter1" result="shadowMatrixOuter1" values="0 0 0 0 0 0 0 0 0 0 0 0 0 0 0 0 0 0 0.25 0"/><feMerge><feMergeNode in="shadowMatrixOuter1"/><feMergeNode in="SourceGraphic"/></feMerge></filter><filter id="d" width="123.5%" height="130.8%" x="-5.6%" y="-5.9%" filterUnits="objectBoundingBox"><feOffset dx="1" dy="1" in="SourceAlpha" result="shadowOffsetOuter1"/><feColorMatrix in="shadowOffsetOuter1" result="shadowMatrixOuter1" values="0 0 0 0 0 0 0 0 0 0 0 0 0 0 0 0 0 0 0.25 0"/><feMerge><feMergeNode in="shadowMatrixOuter1"/><feMergeNode in="SourceGraphic"/></feMerge></filter><path id="f" d="M14.393 39.74c.85 0 1.538-.687 1.538-1.534 0-.846-1.537-2.725-1.537-2.725s-1.538 1.88-1.538 2.726c0 .847.69 1.534 1.538 1.534"/><filter id="e" width="165%" height="147%" x="-16.3%" y="-11.7%" filterUnits="objectBoundingBox"><feOffset dx="1" dy="1" in="SourceAlpha" result="shadowOffsetOuter1"/><feColorMatrix in="shadowOffsetOuter1" values="0 0 0 0 0 0 0 0 0 0 0 0 0 0 0 0 0 0 0.3 0"/></filter><path id="h" d="M2.996 33.902c.877.01 1.83.275 2.864.867 1.54.877 2.752 2.19 4.29 3.066.762.433 1.607.88 2.457 1.082.776.183 1.75-.144 2.31-.008 1.25.302 2.37 1.602 1.857 3.437-.6 2.148-2.835 1.86-4.046 3-.07.066 2.23.65 3.474.367 1.888 4.144-5.393 6.848-8.054 5.933.946.913 2.61 1.376 3.902 1.18.25 1.387-1.46 2.983-2.947 3.922-3.913-2.634-6.686-9.206-6.686-16.897 0-2.085.204-4.087.58-5.95z"/><filter id="g" width="224%" height="163%" x="-75.6%" y="-55.5%" filterUnits="objectBoundingBox"><feOffset dx="1" dy="1" in="SourceAlpha" result="shadowOffsetOuter1"/><feColorMatrix in="shadowOffsetOuter1" values="0 0 0 0 0 0 0 0 0 0 0 0 0 0 0 0 0 0 0.2 0"/></filter></defs><g fill="none" fill-rule="evenodd"><circle cx="45" cy="45" r="45" fill="#F6A623"/><mask id="b" fill="#fff"><use xlink:href="#a"/></mask><path fill="#973B29" d="M13.163 70.963c2.388 1.73 4.852 3.024 7.62 4.04 2.74 1.003 5.555 1.668 8.436 2.123 5.917.932 11.94 1.027 17.916.983 5.87-.046 11.743-.174 17.61-.324 6.577-.167 13.162.272 19.733.056 5.775-.19 11.642-.435 17.415-.06.874.058 1.728-.07 2.595-.19 2.678-.372 5.69-.644 8.078-1.955.487-.268.424-1.133-.162-1.24-2.362-.43-4.773.137-7.115.512-.565.09-1.127.2-1.692.3-.185.03-.372.062-.558.09-.31.05.217-.018-.226.03-1.685.174-3.458-.02-5.15.012-3.166.062-6.318.14-9.483.087-3.425-.057-6.86-.285-10.284-.455-6.255-.31-12.417-1.47-18.696-1.46-7.713.014-15.415.47-23.13.218-7.616-.25-15.282-1.393-22.627-3.435-.42-.117-.6.434-.28.665" mask="url(#b)"/><g mask="url(#b)"><g transform="translate(17.137 13)"><path fill="#5E1A11" d="M3.585 9.135c4.747-.78 6.48-3.106 16.124-2.013l-6.68 17.213-5.996 1.335S2.94 17.76 3.584 9.135zm50.84-5.853c-2.992 0-3.73.672-10.657 3.054l3.987 8.767 2.9 2.483c12.275 2.465 5.646-8.98 3.77-14.304z"/><circle cx="33.136" cy="33.136" r="29.574" fill="#5E1A11"/><path fill="#E61E21" d="M53.575 38.26l.002.133c0 11.434-9.226 22.79-20.66 22.79-10.91 0-19.848-7.3-20.645-17.9-4.46-2.724-7.438-7.638-7.438-13.247 0-8.567 6.944-15.512 15.51-15.512 5.66 0 10.614 3.032 13.323 7.56 1.894-5.212 6.893-8.936 12.76-8.936C53.923 13.148 60 19.225 60 26.72c0 4.874-2.568 9.147-6.425 11.54z" opacity=".25"/><path fill="#E61E21" fill-opacity=".5" d="M34.11 56.655c7.136 0 12.92-5.785 12.92-12.92 0-7.137-3.48-8.755-10.617-8.755-7.136 0-15.224 1.618-15.224 8.754 0 7.136 5.784 12.92 12.92 12.92z"/><path fill="#790607" d="M28.912 45.79c-.278.055-.47-.004-.858.138-.443.16-.83.338-1.31.37-1.083.07-1.333-.782-2.22-1.112-.342-.127-.73.14-.82.468-.73 2.636 5.245 3.272 5.632.466.033-.233-.233-.365-.424-.33m7.633 3.817c-.278.054-.472-.005-.86.137-.442.16-.83.338-1.31.37-1.082.07-1.332-.782-2.22-1.112-.34-.127-.73.14-.82.468-.73 2.636 5.246 3.272 5.633.466.033-.233-.233-.365-.423-.33m6.773-3.678c-.443.16-.83.338-1.31.37-1.082.07-1.333-.782-2.22-1.112-.342-.127-.73.14-.82.468-.73 2.636 5.245 3.272 5.633.466.033-.233-.233-.365-.423-.33-.278.055-.472-.004-.86.138z" opacity=".5"/><g fill="#F6A623" filter="url(#c)" transform="translate(14.5 55.333)"><rect width="2.968" height="5.936" rx="1.484"/><rect width="2.968" height="5.936" x="2.968" y="1.484" rx="1.484"/><rect width="2.968" height="5.936" x="5.936" y="2.473" rx="1.484"/></g><g fill="#F6A623" filter="url(#d)" transform="matrix(-1 0 0 1 52.025 55.84)"><rect width="2.968" height="5.936" rx="1.484"/><rect width="2.968" height="5.936" x="2.968" y="1.484" rx="1.484"/><rect width="2.968" height="5.936" x="5.936" y="2.473" rx="1.484"/></g><path fill="#5E1A11" d="M20.034 35.424c5.515 0 9.986-1.475 9.986-6.99 0-5.515-4.47-9.985-9.986-9.985-5.514 0-9.985 4.47-9.985 9.984s4.47 6.99 9.984 6.99z"/><path fill="#801B14" d="M19.843 33.07c5.972 0 10.813-1.597 10.813-7.568S25.816 14.69 19.843 14.69c-5.97 0-10.812 4.84-10.812 10.812 0 5.97 4.842 7.568 10.813 7.568z"/><path fill="#5E1A11" d="M47.16 33.708c5.532 0 10.017-2.258 10.017-7.79 0-5.533-4.485-10.018-10.017-10.018-5.532 0-10.017 4.485-10.017 10.017 0 5.533 4.485 7.79 10.017 7.79z"/><path fill="#801B14" d="M46.047 31.164c6.323 0 11.448-2.58 11.448-8.904 0-6.322-5.125-6.36-11.448-6.36S34.6 15.938 34.6 22.26c0 6.323 5.124 8.904 11.447 8.904z"/><path d="M31.25 36.444s1.978-1.087 2.345 1.903c.135 1.1 2.084.673 2.002 0-.368-2.99 2.04-2.687 2.04-2.687-.665-5.41-4.042-6.514-4.042-6.514s-3.01 1.887-2.346 7.298z" fill="#F6A623"/></g><path fill="#49B8E2" d="M37.384 48.22s-4.565-.237-5.882-.642c-1.317-.404-1.046 1.846 1.597 1.84 2.642-.007 4.347-.204 5.965 0 1.617.204 4.97-1.335 4.97-2.185 0-.85-6.65.987-6.65.987z"/><g transform="translate(17.137 13)"><use fill="#000" filter="url(#e)" xlink:href="#f"/><use fill="#49B8E2" xlink:href="#f"/></g><path stroke="#FFF" stroke-linecap="round" stroke-linejoin="round" d="M32.57 50.996s.026.877-.78 1.11" opacity=".5"/><path fill="#49B8E2" d="M65.384 46.394s4.502-.792 5.76-1.354 1.263 1.705-1.36 2.02c-2.625.316-4.342.328-5.923.727-1.58.4-5.095-.718-5.2-1.562-.103-.844 6.724.17 6.724.17z"/><path fill="#4A4A4A" d="M5.124 35.293C3.4 35.753 2.41 37.64 2.91 39.51l9.37 34.974c.5 1.867 2.302 3.006 4.027 2.544l15.535-4.163c1.723-.46 2.715-2.346 2.214-4.216l-9.37-34.976c-.5-1.867-2.302-3.006-4.027-2.544L5.123 35.293z"/><path fill="#4990E2" d="M13.762 71.843l17.692-4.74-8.25-30.788-17.692 4.74z"/><path fill="#FFF" d="M20.57 55.268l-2.095.56-2.376-7.545 2.754-.738 1.715 7.723zm-1.865 3.05a1.233 1.233 0 0 1 .16-1.043c.21-.317.518-.53.928-.64.41-.11.783-.08 1.122.09.338.17.56.444.66.823.1.378.048.726-.16 1.042-.21.317-.518.53-.927.64-.41.11-.784.08-1.122-.09a1.233 1.233 0 0 1-.66-.823z"/><path fill="#9B9B9B" fill-opacity=".25" d="M10.903 36.678c.1.377.417.62.725.54l4.36-1.17c.3-.08.457-.462.36-.83-.102-.377-.418-.62-.726-.538l-4.36 1.168c-.3.08-.457.463-.36.83zm12.805 36.9a1.413 1.413 0 0 0 .994-1.733 1.413 1.413 0 0 0-1.727-1.004 1.413 1.413 0 0 0-.995 1.735 1.413 1.413 0 0 0 1.728 1.003z"/><g transform="translate(2 13)"><use fill="#000" filter="url(#g)" xlink:href="#h"/><use fill="#5E1A11" xlink:href="#h"/></g></g></g></svg>
