<svg x="0px" y="0px" viewBox="0 0 650 711" xmlns="http://www.w3.org/2000/svg">
  <path d="M 323.34 69.913 C 335.74 66.213 348.44 63.413 361.14 61.613 C 373.84 59.813 386.64 58.913 399.34 58.913 C 430.64 58.913 461.04 64.313 490.04 75.013 C 445.94 34.013 387.84 11.013 326.74 11.013 C 245.74 11.013 170.64 51.513 125.94 119.313 C 100.04 158.513 86.34 204.213 86.34 251.413 C 86.34 262.713 87.14 274.213 88.84 285.813 C 90.54 297.413 93.04 309.013 96.34 320.113 C 106.94 355.513 125.34 387.813 150.44 414.713 C 139.84 385.613 134.24 354.613 134.24 323.613 C 134.24 271.713 149.34 221.413 177.84 178.213 C 212.24 126.013 263.94 87.613 323.34 69.913 Z" />
  <path d="M 418.04 499.713 C 388.94 510.313 357.94 515.913 326.94 515.913 C 275.04 515.913 224.74 500.813 181.54 472.313 C 129.54 438.013 91.04 386.413 73.34 326.913 C 69.64 314.613 66.84 301.913 65.04 289.113 C 63.24 276.413 62.34 263.713 62.34 251.313 C 62.34 220.213 67.94 189.113 78.54 160.113 C 37.54 204.313 14.44 262.413 14.44 323.513 C 14.44 404.513 54.94 479.613 122.74 524.313 C 162.04 550.213 207.64 563.913 254.84 563.913 C 266.14 563.913 277.64 563.113 289.24 561.413 C 300.74 559.713 312.34 557.213 323.54 553.913 C 358.84 543.313 391.04 524.813 418.04 499.713 Z" />
  <path d="M 531.04 122.713 C 491.74 96.813 446.24 83.113 399.54 83.113 C 387.94 83.113 376.24 83.913 364.64 85.613 C 353.04 87.313 341.54 89.813 330.34 93.113 C 294.94 103.713 262.64 122.113 235.74 147.113 C 264.84 136.513 295.84 130.913 326.84 130.913 C 378.74 130.913 429.04 146.013 472.24 174.513 C 524.24 208.813 562.74 260.413 580.44 319.913 C 584.14 332.413 586.94 345.113 588.74 357.813 C 590.54 370.313 591.44 383.013 591.44 395.613 C 591.44 426.713 585.84 457.713 575.24 486.813 C 616.24 442.613 639.34 384.513 639.34 323.413 C 639.34 242.513 598.84 167.413 531.04 122.713 Z" />
  <path d="M 484.74 580.213 L 485.44 576.213 L 488.44 573.513 C 503.34 559.913 516.54 544.513 527.54 527.813 C 553.44 488.513 567.14 442.913 567.14 395.713 C 567.14 384.313 566.34 372.713 564.64 361.413 C 563.04 349.913 560.44 338.313 557.14 327.013 C 546.54 291.613 528.14 259.313 503.04 232.413 C 513.64 261.513 519.24 292.513 519.24 323.613 C 519.24 375.513 504.14 425.813 475.64 469.013 C 441.34 521.013 389.74 559.513 330.24 577.213 C 317.84 580.913 305.14 583.713 292.44 585.513 C 279.74 587.313 267.04 588.213 254.64 588.213 C 223.54 588.213 192.44 582.613 163.44 572.013 C 207.64 613.013 265.74 636.113 326.84 636.113 C 347.74 636.113 368.64 633.413 388.74 628.013 L 395.54 626.213 L 400.54 631.213 C 417.74 648.613 419.34 676.713 417.44 698.313 C 468.84 653.613 482.44 592.713 484.74 580.213 Z" />
</svg>
