<?xml version="1.0" encoding="UTF-8"?>
<svg width="21px" height="21px" viewBox="0 0 21 21" version="1.1" xmlns="http://www.w3.org/2000/svg" xmlns:xlink="http://www.w3.org/1999/xlink">
    <!-- Generator: sketchtool 42 (36781) - http://www.bohemiancoding.com/sketch -->
    <title>F871A7DF-3331-47D7-8DCB-9644736556B1</title>
    <desc>Created with sketchtool.</desc>
    <defs></defs>
    <g id="Page-1" stroke="none" stroke-width="1" fill="none" fill-rule="evenodd">
        <g id="Icons" transform="translate(-2745.000000, -1761.000000)" fill="#4A4A4A">
            <g id="Group-5" transform="translate(2745.000000, 1761.000000)">
                <path d="M10.636425,8.27583634 C8.88911335,9.16580324 7.69230769,10.9815987 7.69230769,13.0769231 C7.69230769,13.9027671 7.87822388,14.6851882 8.21048551,15.3846154 L1.88737914e-15,15.3846154 C0,11.1362712 3.44396346,7.69230769 7.69230769,7.69230769 C8.73516454,7.69230769 9.72955154,7.89983179 10.636425,8.27583634 Z M7.69230769,7.69230769 C5.56813558,7.69230769 3.84615385,5.97032596 3.84615385,3.84615385 C3.84615385,1.72198173 5.56813558,0 7.69230769,0 C9.81647981,0 11.5384615,1.72198173 11.5384615,3.84615385 C11.5384615,5.97032596 9.81647981,7.69230769 7.69230769,7.69230769 Z" id="Combined-Shape"></path>
                <path d="M16.3673559,17.1915513 C15.5888217,17.7463038 14.6362317,18.0726024 13.6074306,18.0726024 C10.9778499,18.0726024 8.84615385,15.9409063 8.84615385,13.3113256 C8.84615385,10.6817449 10.9778499,8.55004883 13.6074306,8.55004883 C16.2370113,8.55004883 18.3687074,10.6817449 18.3687074,13.3113256 C18.3687074,14.3401267 18.0424089,15.2927166 17.4876563,16.0712509 L20.6159839,19.1995784 C20.9241791,19.5077736 20.9216095,20.0009019 20.6158724,20.3066391 L20.6027441,20.3197673 C20.297789,20.6247225 19.801359,20.6255544 19.4956835,20.3198789 L16.3673559,17.1915513 L16.3673559,17.1915513 L16.3673559,17.1915513 Z M13.6074306,16.952302 C15.6182865,16.952302 17.248407,15.3221814 17.248407,13.3113256 C17.248407,11.3004698 15.6182865,9.67034925 13.6074306,9.67034925 C11.5965748,9.67034925 9.96645426,11.3004698 9.96645426,13.3113256 C9.96645426,15.3221814 11.5965748,16.952302 13.6074306,16.952302 L13.6074306,16.952302 L13.6074306,16.952302 Z" id="search"></path>
            </g>
        </g>
    </g>
</svg>