<svg xmlns="http://www.w3.org/2000/svg" width="25" height="23" viewBox="0 0 25 23">
    <g fill="#FFF" fill-rule="evenodd">
        <path d="M21 8.582a8 8 0 0 0-10.366 10.545l-1.357 1.356a1.754 1.754 0 0 1-2.48.007L.51 14.202a1.754 1.754 0 0 1 .007-2.48L12.239 0h7.01C20.215 0 21 .777 21 1.752v6.83zm-4.818-2.45a1.314 1.314 0 1 0 0-2.628 1.314 1.314 0 0 0 0 2.628z"/>
        <path d="M18.5 23a6.5 6.5 0 1 0 0-13 6.5 6.5 0 0 0 0 13zm2.625-7.375h-1.75v-1.75a.875.875 0 0 0-1.75 0l.031 1.75h-1.781a.875.875 0 0 0 0 1.75l1.781-.031-.031 1.781a.875.875 0 0 0 1.75 0v-1.781l1.75.031a.875.875 0 0 0 0-1.75z"/>
    </g>
</svg>
