<?xml version="1.0" encoding="UTF-8" standalone="no"?>
<svg width="10px" height="20px" viewBox="0 0 10 20" version="1.1" xmlns="http://www.w3.org/2000/svg" xmlns:xlink="http://www.w3.org/1999/xlink">
    <!-- Generator: sketchtool 41.2 (35397) - http://www.bohemiancoding.com/sketch -->
    <title>14052892-2B8E-4589-A5D7-C0BECD5A1343</title>
    <desc>Created with sketchtool.</desc>
    <defs></defs>
    <g id="Chat-2" stroke="none" stroke-width="1" fill="none" fill-rule="evenodd" opacity="0.5">
        <g id="Chat-1" transform="translate(-599.000000, -694.000000)" fill="#565151">
            <path d="M601.604912,698.652281 L601.604912,708.878246 C601.604912,710.074737 602.578246,711.04807 603.775088,711.04807 C604.97193,711.04807 605.944912,710.075088 605.944912,708.878246 L605.944912,697.275789 L605.935088,697.275789 C605.832281,695.452982 604.320702,694 602.47193,694 C600.623509,694 599.112632,695.452982 599.009825,697.275789 L599,697.275789 L599,708.681754 C599,711.365614 601.118596,713.549474 603.723509,713.549474 C606.32807,713.549474 608.446667,711.365614 608.446667,708.681754 L608.446667,696.882456 L607.253684,696.882456 L607.253684,708.681754 C607.253684,710.707719 605.669825,712.356842 603.723509,712.356842 C601.776842,712.356842 600.192632,710.70807 600.192632,708.681754 L600.192632,697.472632 C600.192632,696.215789 601.215439,695.193333 602.47193,695.193333 C603.729123,695.193333 604.75193,696.215789 604.75193,697.472632 L604.75193,708.878246 C604.75193,709.416842 604.313684,709.854737 603.775439,709.854737 C603.236842,709.854737 602.798246,709.416842 602.798246,708.878246 L602.798246,698.652281 L601.604912,698.652281 L601.604912,698.652281 Z" id="attach"></path>
        </g>
    </g>
</svg>