<svg xmlns="http://www.w3.org/2000/svg" width="46" height="50" viewBox="0 0 46 50">
    <g fill="#FFF" fill-rule="nonzero">
        <path d="M26.558 43.182h-7.87c-1.574 0-2.923 1.818-2.024 3.409C18.014 48.636 20.262 50 22.735 50c2.474 0 4.723-1.364 5.847-3.41.9-1.59-.225-3.408-2.024-3.408zM44.772 35.682l-.899-1.137c-3.598-4.772-5.397-10.454-5.397-16.363V16.59c0-8.182-5.846-15.455-13.942-16.364C15.09-.909 6.994 6.591 6.994 15.91v2.273c0 5.909-1.798 11.59-5.396 16.363l-.9 1.137c-.45.454-.674 1.363-.45 1.818.675 2.045 2.474 3.41 4.498 3.41h35.979c2.024 0 3.823-1.365 4.272-3.41.225-.682 0-1.364-.225-1.818z"/>
    </g>
</svg>
