<svg xmlns="http://www.w3.org/2000/svg" width="20" height="20" viewBox="0 0 20 20">
    <g fill="#4990E2" fill-rule="evenodd">
        <path fill-rule="nonzero" d="M18.612 1.429h-1.47v1.817C17.143 4.25 16.108 5 15.037 5c-1.072 0-2.179-.75-2.179-1.754V1.429H7.143v1.817C7.143 4.25 6.07 5 5 5c-1.071 0-2.143-.75-2.143-1.754V1.429H1.388C.621 1.429 0 2.022 0 2.74v15.96C0 19.42.62 20 1.388 20h17.224c.767 0 1.388-.58 1.388-1.304V2.741c0-.719-.62-1.312-1.388-1.312zm-.755 15.888c0 .295-.259.536-.571.536l-14.576.004c-.313-.013-.567-.25-.567-.544V6.977c0-.308.263-.55.594-.55h14.53c.327 0 .59.237.59.54v10.349z"/>
        <path fill-rule="nonzero" d="M6.429 2.857c0 .79-.639 1.429-1.429 1.429s-1.429-.639-1.429-1.429V1.43C3.571.639 4.21 0 5 0s1.429.638 1.429 1.429v1.428zM16.429 2.857c0 .79-.639 1.429-1.429 1.429s-1.429-.639-1.429-1.429V1.43C13.571.639 14.21 0 15 0s1.429.638 1.429 1.429v1.428z"/>
        <path d="M5 8h3.333v3.2H5V8zm6.667 0H15v3.2h-3.333V8zM5 12.8h3.333V16H5v-3.2zm6.667 0H15V16h-3.333v-3.2z"/>
    </g>
</svg>
