<?xml version="1.0" encoding="UTF-8" standalone="no"?>
<svg width="14px" height="12px" viewBox="0 0 14 12" version="1.1" xmlns="http://www.w3.org/2000/svg" xmlns:xlink="http://www.w3.org/1999/xlink">
    <!-- Generator: sketchtool 41.2 (35397) - http://www.bohemiancoding.com/sketch -->
    <title>627FAC31-39E5-4301-A13E-7CC320BAA6C4</title>
    <desc>Created with sketchtool.</desc>
    <defs></defs>
    <g id="Chat-2" stroke="none" stroke-width="1" fill="none" fill-rule="evenodd">
        <g id="Inbox-Menu-Agente" transform="translate(-1057.000000, -152.000000)" fill="#565151">
            <path d="M1069,153.714286 L1067.36171,153.714286 L1066.82857,152.571429 C1066.70571,152.286857 1066.21429,152 1065.78514,152 L1062.00514,152 C1061.576,152 1061.08457,152.286857 1060.96171,152.571429 L1060.42857,153.714286 L1058.71429,153.714286 C1057.34914,153.714286 1057,154.857143 1057,154.857143 L1057,162.857143 C1057,162.857143 1057.85714,164 1058.71429,164 L1069,164 C1069.91086,164 1070.71429,162.857143 1070.71429,162.857143 L1070.71429,154.857143 C1070.71429,154.857143 1070.42629,153.714286 1069,153.714286 Z M1063.85714,162.286286 C1061.964,162.286286 1060.42857,160.750857 1060.42857,158.857143 C1060.42857,156.964 1061.964,155.428571 1063.85714,155.428571 C1065.75086,155.428571 1067.28571,156.964 1067.28571,158.857143 C1067.28571,160.750857 1065.75086,162.286286 1063.85714,162.286286 Z M1063.85714,156.571429 C1062.59486,156.571429 1061.57143,157.594857 1061.57143,158.857143 C1061.57143,160.119429 1062.59486,161.142857 1063.85714,161.142857 C1065.11943,161.142857 1066.14286,160.119429 1066.14286,158.857143 C1066.14286,157.594857 1065.11943,156.571429 1063.85714,156.571429 Z" id="Shape"></path>
        </g>
    </g>
</svg>