<?xml version="1.0" encoding="UTF-8"?>
<svg width="20px" height="20px" viewBox="0 0 20 20" version="1.1" xmlns="http://www.w3.org/2000/svg" xmlns:xlink="http://www.w3.org/1999/xlink">
    <!-- Generator: sketchtool 41.2 (35397) - http://www.bohemiancoding.com/sketch -->
    <title>B453E566-121E-43B3-90D9-A9B8EC5A9DE4</title>
    <desc>Created with sketchtool.</desc>
    <defs></defs>
    <g id="Page-1" stroke="none" stroke-width="1" fill="none" fill-rule="evenodd">
        <g id="Icons" transform="translate(-2031.000000, -538.000000)" fill="#FFFFFF">
            <g id="clock" transform="translate(2031.000000, 538.000000)">
                <path d="M10,0 C4.47727273,0 0,4.47727273 0,10 C0,15.5229545 4.47727273,20 10,20 C15.5229545,20 20,15.5229545 20,10 C20,4.47727273 15.5229545,0 10,0 Z M10,18.1818182 C5.48136364,18.1818182 1.81818182,14.5186364 1.81818182,10 C1.81818182,5.48136364 5.48136364,1.81818182 10,1.81818182 C14.5186364,1.81818182 18.1818182,5.48136364 18.1818182,10 C18.1818182,14.5186364 14.5186364,18.1818182 10,18.1818182 Z" id="Shape"></path>
                <path d="M10.9090909,9.62340909 L10.9090909,4.54545455 C10.9090909,4.04340909 10.5020455,3.63636364 10,3.63636364 C9.49795455,3.63636364 9.09090909,4.04340909 9.09090909,4.54545455 L9.09090909,10 C9.09181818,10.0636364 9.0975,10.1211364 9.10886364,10.1777273 C9.11431818,10.2056818 9.12454545,10.2309091 9.1325,10.2581818 C9.14136364,10.2881818 9.14818182,10.3186364 9.16022727,10.3479545 C9.17340909,10.3793182 9.19113636,10.4079545 9.2075,10.4375 C9.21977273,10.4602273 9.22954545,10.4829545 9.24386364,10.5045455 C9.27727273,10.5547727 9.31522727,10.6018182 9.35772727,10.6438636 L11.9284091,13.2147727 C12.2834091,13.5697727 12.8595455,13.5697727 13.2143182,13.2147727 C13.5693182,12.8597727 13.5693182,12.2836364 13.2143182,11.9293182 L10.9090909,9.62340909 Z" id="Shape"></path>
            </g>
        </g>
    </g>
</svg>