<?xml version="1.0" encoding="UTF-8"?>
<svg width="18px" height="18px" viewBox="0 0 18 18" version="1.1" xmlns="http://www.w3.org/2000/svg" xmlns:xlink="http://www.w3.org/1999/xlink">
    <!-- Generator: sketchtool 41.2 (35397) - http://www.bohemiancoding.com/sketch -->
    <title>AC463C60-BEF2-46D5-8AEC-7DFD9D365DBE</title>
    <desc>Created with sketchtool.</desc>
    <defs></defs>
    <g id="Chat-2" stroke="none" stroke-width="1" fill="none" fill-rule="evenodd">
        <g id="Chat-1" transform="translate(-631.000000, -111.000000)" stroke="#FFFFFF" fill="#FFFFFF">
            <g id="Chat" transform="translate(80.000000, 80.000000)">
                <g id="close" transform="translate(540.000000, 20.000000)">
                    <path d="M21.1747609,20.0111863 L27.7578966,13.4640066 C28.07351,13.1515893 28.07351,12.6458089 27.7578966,12.3341906 C27.4430822,12.0217733 26.9317087,12.0217733 26.6168943,12.3341906 L20.0393518,18.8757772 L13.4010837,12.23671 C13.0862693,11.9210967 12.5748958,11.9210967 12.2600814,12.23671 C11.945267,12.5531224 11.945267,13.065295 12.2600814,13.3809084 L18.8935554,20.0151814 L12.2361108,26.6358711 C11.9212964,26.9482883 11.9212964,27.4540688 12.2361108,27.765687 C12.5509251,28.0781043 13.0622987,28.0781043 13.377113,27.765687 L20.0289645,21.1505905 L26.6408649,27.76329 C26.9556793,28.0789033 27.4670529,28.0789033 27.7818672,27.76329 C28.0966816,27.4468776 28.0966816,26.934705 27.7818672,26.6190916 L21.1747609,20.0111863 L21.1747609,20.0111863 Z" id="Close"></path>
                </g>
            </g>
        </g>
    </g>
</svg>