<svg xmlns="http://www.w3.org/2000/svg" width="32" height="32" viewBox="0 0 32 32">
    <g fill="none" fill-rule="nonzero" transform="translate(1 1)">
        <circle cx="15" cy="15" r="15" fill="#FFF" stroke="#D7D7D7"/>
        <path fill="#4EA2E0" d="M9.134 16.625a.938.938 0 0 0-.904-.688H5.816a.938.938 0 0 0-.919 1.126 10.27 10.27 0 0 0 3.038 5.449.937.937 0 0 0 1.454-.214l1.219-2.11a.938.938 0 0 0-.117-1.1 6.13 6.13 0 0 1-1.357-2.463z"/>
        <path fill="#00B592" d="M17.298 21.401a.937.937 0 0 0-1.012-.447 6.032 6.032 0 0 1-3.048-.121.937.937 0 0 0-1.085.428l-1.196 2.072a.938.938 0 0 0 .487 1.349c1.133.418 2.33.63 3.556.63a10.3 10.3 0 0 0 2.975-.435.937.937 0 0 0 .541-1.367l-1.218-2.109z"/>
        <path fill="#E5730A" d="M20.867 13.373c.111.407.482.69.904.69h2.415a.937.937 0 0 0 .918-1.124 10.306 10.306 0 0 0-3.498-5.858.939.939 0 0 0-1.412.252L18.996 9.41a.938.938 0 0 0 .171 1.153 6.03 6.03 0 0 1 1.7 2.811z"/>
        <path fill="#BA3121" d="M17.975 5.123A10.3 10.3 0 0 0 15 4.687c-1.226 0-2.422.213-3.556.631a.936.936 0 0 0-.487 1.349l1.196 2.073a.937.937 0 0 0 1.085.428 6.042 6.042 0 0 1 3.048-.122.94.94 0 0 0 1.012-.447l1.218-2.11a.938.938 0 0 0-.541-1.366z"/>
        <path fill="#F5A623" d="M24.186 15.938H21.77a.938.938 0 0 0-.904.689 6.032 6.032 0 0 1-1.7 2.811.937.937 0 0 0-.17 1.153l1.197 2.076a.936.936 0 0 0 1.412.252 10.308 10.308 0 0 0 3.499-5.858.94.94 0 0 0-.92-1.123z"/>
        <path fill="#924CAF" d="M9.39 7.703a.94.94 0 0 0-1.455-.214 10.264 10.264 0 0 0-3.038 5.449.938.938 0 0 0 .918 1.124H8.23c.421 0 .79-.28.903-.687a6.13 6.13 0 0 1 1.357-2.464.938.938 0 0 0 .117-1.099L9.39 7.702z"/>
    </g>
</svg>
