<svg xmlns="http://www.w3.org/2000/svg" width="18" height="18" viewBox="0 0 18 18">
    <path fill="#565151" fill-rule="evenodd" d="M16.65 10.8l-.9-.525a1.544 1.544 0 0 1 0-2.625l.9-.525c.75-.45.975-1.35.525-2.025l-.75-1.275c-.45-.75-1.35-.975-2.025-.525l-.9.525c-.975.6-2.25-.15-2.25-1.275V1.5c0-.825-.675-1.5-1.5-1.5h-1.5c-.825 0-1.5.675-1.5 1.5v.975C6.75 3.6 5.475 4.35 4.5 3.75l-.9-.45c-.75-.45-1.65-.15-2.025.525L.825 5.1c-.375.75-.15 1.65.525 2.1l.9.525c.975.525.975 2.025 0 2.55l-.9.525c-.75.45-.975 1.35-.525 2.025l.75 1.275c.45.75 1.35.975 2.025.525l.9-.45c.975-.6 2.25.15 2.25 1.275v1.05c0 .825.675 1.5 1.5 1.5h1.5c.825 0 1.5-.675 1.5-1.5v-.975c0-1.125 1.275-1.875 2.25-1.275l.9.525c.75.45 1.65.15 2.025-.525l.75-1.275c.375-.825.15-1.725-.525-2.175zM9 12c-1.65 0-3-1.35-3-3s1.35-3 3-3 3 1.35 3 3-1.35 3-3 3z" opacity=".5"/>
</svg>
