<svg xmlns="http://www.w3.org/2000/svg" width="18" height="21" viewBox="0 0 18 21">
    <g fill="#FFF" fill-rule="evenodd">
        <path fill-rule="nonzero" d="M16 18.273H2c-1.1 0-2 .818-2 1.818C0 20.636.4 21 1 21h16c.6 0 1-.364 1-.91 0-1-.9-1.817-2-1.817z"/>
        <path stroke="#FFF" stroke-width=".5" d="M10.164 12.585c-.052.047-.107.093-.193.168v-.183-3.382-7.23c0-.44-.269-.769-.738-.917C9.2 1.03 9.168 1.014 9.136 1h-.44c-.622.187-.845.575-.844 1.152.013 5.128.007 5.23.007 10.359v.202l-.056.02c-.087-.086-.17-.177-.261-.26-1.278-1.158-1.427-1.31-2.705-2.468a1.098 1.098 0 0 0-.892-.293c-.44.05-.748.267-.886.64-.138.372-.031.704.28.985 1.884 1.706 2.638 2.407 4.52 4.115.247.224.483.456.837.548h.44c.206-.118.443-.209.614-.358.792-.696 1.567-1.409 2.347-2.116 1.171-1.06 1.211-1.115 2.381-2.175.364-.33.453-.756.238-1.126-.342-.59-1.185-.7-1.72-.218-1.324 1.192-1.511 1.383-2.832 2.578z"/>
    </g>
</svg>
