<?xml version="1.0" encoding="UTF-8"?>
<svg width="130px" height="104px" viewBox="0 0 130 104" version="1.1" xmlns="http://www.w3.org/2000/svg" xmlns:xlink="http://www.w3.org/1999/xlink">
    <!-- Generator: sketchtool 42 (36781) - http://www.bohemiancoding.com/sketch -->
    <title>D54E1FF0-6F66-45D0-B4F9-431179F3129C</title>
    <desc>Created with sketchtool.</desc>
    <defs></defs>
    <g id="Page-1-Copy-3" stroke="none" stroke-width="1" fill="none" fill-rule="evenodd">
        <g id="51-historico-vazio" transform="translate(-123.000000, -194.000000)">
            <g id="Group" transform="translate(125.000000, 196.000000)">
                <path d="M115.454545,80 L118.206228,80 C122.209363,80 125.454545,76.7540989 125.454545,72.7451298 L125.454545,21.8003247 C125.454545,17.7935705 122.192509,14.5454545 118.160514,14.5454545 L74.5454545,14.5454545 L67.2727273,0 L27.2827641,0 C23.2606045,0 20,3.235178 20,7.24056364 L20,10 L57.2727273,10 L64.5454545,24.5454545 L108.160514,24.5454545 C112.192509,24.5454545 115.454545,27.7935705 115.454545,31.8003247 L115.454545,80 Z" id="Combined-Shape" stroke="#D2D1D2" stroke-width="4"></path>
                <path d="M105.454545,90 L108.206228,90 C112.209363,90 115.454545,86.7540989 115.454545,82.7451298 L115.454545,31.8003247 C115.454545,27.7935705 112.192509,24.5454545 108.160514,24.5454545 L64.5454545,24.5454545 L57.2727273,10 L17.2827641,10 C13.2606045,10 10,13.235178 10,17.2405636 L10,20 L47.2727273,20 L54.5454545,34.5454545 L98.1605138,34.5454545 C102.192509,34.5454545 105.454545,37.7935705 105.454545,41.8003247 L105.454545,90 Z" id="Combined-Shape" stroke="#D2D1D2" stroke-width="4"></path>
                <path d="M54.5454545,34.5454545 L47.2727273,20 L7.28276411,20 C3.26060455,20 0,23.235178 0,27.2405636 L0,92.7594364 C0,96.7582891 3.27168247,100 7.24831796,100 L98.2062276,100 C102.209363,100 105.454545,96.7540989 105.454545,92.7451298 L105.454545,41.8003247 C105.454545,37.7935705 102.192509,34.5454545 98.1605138,34.5454545 L54.5454545,34.5454545 L54.5454545,34.5454545 Z" id="folder-search" stroke="#D2D1D2" stroke-width="4"></path>
                <path d="M49.6025255,58.7222222 L52.5191922,58.7222222 L52.5191922,66.9861111 L59.3247477,71.0208333 L57.9247477,73.3833333 L49.6025255,68.4444444 L49.6025255,58.7222222 Z M34.0469699,66.5 C34.0469699,56.8361111 41.8636366,49 51.5372477,49 C61.2108588,49 69.0469699,56.8361111 69.0469699,66.5 C69.0469699,76.1638889 61.2108588,84 51.5372477,84 C46.7053033,84 42.3400255,82.0361111 39.1803033,78.8666667 L41.9316922,76.1152778 C44.3914144,78.575 47.7844699,80.1111111 51.5469699,80.1111111 C59.0622477,80.1111111 65.1580811,74.0152778 65.1580811,66.5 C65.1580811,58.9847222 59.0622477,52.8888889 51.5469699,52.8888889 C44.0316922,52.8888889 37.9358588,58.9847222 37.9358588,66.5 L41.9316918,66.5 L35.9233588,74.3555556 L35.7872477,74.0736111 L30,66.5 L34.0469699,66.5 Z" id="Combined-Shape-Copy" fill="#4A4A4A" opacity="0.25"></path>
            </g>
        </g>
    </g>
</svg>