<?xml version="1.0" encoding="UTF-8"?>
<svg width="124px" height="44px" viewBox="0 0 124 44" version="1.1" xmlns="http://www.w3.org/2000/svg" xmlns:xlink="http://www.w3.org/1999/xlink">
    <!-- Generator: sketchtool 42 (36781) - http://www.bohemiancoding.com/sketch -->
    <title>9AF8A1C0-1E76-4DCF-BF1E-FD7F2F0EB243</title>
    <desc>Created with sketchtool.</desc>
    <defs></defs>
    <g id="Page-1" stroke="none" stroke-width="1" fill="none" fill-rule="evenodd">
        <g id="Icons" transform="translate(-502.000000, -121.000000)">
            <g id="Page-1" transform="translate(502.000000, 121.000000)">
                <path d="M34.8024512,21.8526585 C34.6959878,21.1052195 34.5335488,20.3742439 34.3228171,19.6674146 C33.285622,16.181561 31.0400122,13.2203415 28.0711098,11.2633902 C29.660378,13.6747317 30.5878171,16.5624146 30.5878171,19.6674146 C30.5878171,22.7713171 29.660378,25.659 28.0711098,28.071439 C26.113061,31.0392439 23.1507439,33.2859512 19.6670854,34.3231463 C18.9569634,34.5349756 18.2281829,34.6963171 17.4807439,34.803878 C16.7662317,34.9059512 16.0363537,34.9608293 15.2944024,34.9608293 C12.1894024,34.9608293 9.30281707,34.0333902 6.89037805,32.4430244 C9.6255,36.594 14.3252561,39.3335122 19.6670854,39.3335122 C25.0089146,39.3335122 29.7075732,36.594 32.4437927,32.4419268 C34.033061,30.0305854 34.9605,27.144 34.9605,24.039 C34.9605,23.2959512 34.905622,22.5660732 34.8024512,21.8526585" id="Fill-1" fill="#E72324"></path>
                <path d="M19.6670854,0 C14.3252561,0 9.6255,2.74060976 6.89037805,6.88939024 C5.3000122,9.30182927 4.37257317,12.1884146 4.37257317,15.2945122 C4.37257317,16.0364634 4.42854878,16.7663415 4.52952439,17.4808537 C4.63818293,18.2282927 4.79952439,18.9581707 5.0102561,19.6671951 C6.04854878,23.1508537 8.29415854,26.1142683 11.263061,28.0712195 C9.67269512,25.6587805 8.7452561,22.7710976 8.7452561,19.6671951 C8.7452561,16.5621951 9.67269512,13.6745122 11.263061,11.2631707 C13.2200122,8.29426829 16.1823293,6.04865854 19.6670854,5.00926829 C20.3761098,4.79963415 21.1059878,4.63829268 21.8534268,4.53073171 C22.5668415,4.42756098 23.2967195,4.37158537 24.0397683,4.37158537 C27.1436707,4.37158537 30.0313537,5.30012195 32.4437927,6.8904878 C29.7075732,2.74060976 25.0089146,0 19.6670854,0" id="Fill-3" fill="#E72324"></path>
                <g id="Group-7" transform="translate(0.000000, 6.733317)" fill="#7E1416">
                    <path d="M19.6670854,23.8548293 C16.5620854,23.8548293 13.6755,22.9273902 11.263061,21.338122 C8.29415854,19.3811707 6.04854878,16.4177561 5.0102561,12.9340976 C4.79952439,12.2250732 4.63818293,11.4951951 4.52952439,10.7477561 C4.42854878,10.0332439 4.37257317,9.30336585 4.37257317,8.56031707 C4.37257317,5.45531707 5.3000122,2.56763415 6.89037805,0.156292683 C2.7405,2.89141463 -0.000109756098,7.59226829 -0.000109756098,12.9340976 C-0.000109756098,18.2748293 2.7405,22.9745854 6.89037805,25.7097073 C9.30281707,27.3000732 12.1905,28.2275122 15.2944024,28.2275122 C16.0363537,28.2275122 16.7662317,28.1726341 17.4807439,28.070561 C18.2281829,27.963 18.958061,27.8016585 19.6670854,27.5898293 C23.1507439,26.5526341 26.1141585,24.3059268 28.0711098,21.338122 C25.6586707,22.9262927 22.7720854,23.8548293 19.6670854,23.8548293" id="Fill-5"></path>
                </g>
                <path d="M32.4433537,6.89092683 C30.0309146,5.30056098 27.1443293,4.37202439 24.0393293,4.37202439 C23.2962805,4.37202439 22.5664024,4.428 21.8529878,4.53117073 C21.1055488,4.63763415 20.3756707,4.80007317 19.6666463,5.00970732 C16.1829878,6.048 13.2206707,8.29360976 11.2637195,11.2625122 C13.675061,9.67214634 16.5616463,8.74360976 19.6666463,8.74360976 C22.7716463,8.74360976 25.6582317,9.6732439 28.0706707,11.2625122 C31.0395732,13.220561 33.2851829,16.1817805 34.3234756,19.6676341 C34.5342073,20.3744634 34.6966463,21.105439 34.8020122,21.852878 C34.9062805,22.5662927 34.960061,23.2961707 34.960061,24.0392195 C34.960061,27.1442195 34.032622,30.0308049 32.4433537,32.4421463 C36.5932317,29.708122 39.3327439,25.0083659 39.3327439,19.6676341 C39.3327439,14.3247073 36.5932317,9.62495122 32.4433537,6.89092683" id="Fill-8" fill="#7E1416"></path>
                <path d="M29.9883293,35.153122 C29.9883293,35.153122 29.2035732,40.8769024 24.1021098,44.0499512 C24.1021098,44.0499512 25.5585732,39.0384878 22.5578415,38.2197073 C19.5593049,37.4009268 28.2541829,33.1325122 29.9883293,35.153122" id="Fill-10" fill="#E72324"></path>
                <path d="M45.3605488,22.0391341 C45.3605488,22.3760854 45.4110366,22.7031585 45.5142073,23.0225488 C45.617378,23.3397439 45.752378,23.6295 45.9214024,23.8907195 C46.3143293,24.4340122 46.8005488,24.826939 47.380061,25.0695 C47.8103049,25.2571829 48.2405488,25.3504756 48.6707927,25.3504756 C49.0253049,25.3504756 49.3578659,25.2988902 49.667378,25.1957195 C49.9757927,25.0936463 50.260061,24.9476707 50.522378,24.7599878 C51.0656707,24.4241341 51.467378,23.9466951 51.7296951,23.3298659 C51.897622,22.919378 51.9821341,22.4880366 51.9821341,22.0391341 C51.9821341,21.3476707 51.7944512,20.7308415 51.4201829,20.1875488 C51.0470122,19.6442561 50.5596951,19.2436463 49.962622,18.9813293 C49.5685976,18.8134024 49.1383537,18.7277927 48.6707927,18.7277927 C47.9793293,18.7277927 47.3614024,18.9154756 46.8192073,19.2897439 C46.2759146,19.6640122 45.8753049,20.1502317 45.6129878,20.7484024 C45.5383537,20.9547439 45.4768902,21.1599878 45.4307927,21.3663293 C45.3835976,21.5715732 45.3605488,21.7965732 45.3605488,22.0391341 M45.2475,27.1175488 C44.7612805,26.8003537 44.3266463,26.4063293 43.9425,25.9398659 C43.5594512,25.4723049 43.2455488,24.9674268 43.0040854,24.4241341 C42.6846951,23.6755976 42.5266463,22.882061 42.5266463,22.0391341 C42.5266463,21.3849878 42.6188415,20.7681585 42.8065244,20.1875488 C42.9931098,19.6080366 43.2455488,19.074622 43.564939,18.5873049 C43.9007927,18.1021829 44.2981098,17.6675488 44.7568902,17.2834024 C45.2145732,16.9003537 45.724939,16.5963293 46.2857927,16.3724268 C46.660061,16.222061 47.0442073,16.1013293 47.4360366,16.006939 C47.830061,15.9136463 48.2405488,15.8664512 48.6707927,15.8664512 C49.3062805,15.8664512 49.9198171,15.9608415 50.5092073,16.1474268 C51.0985976,16.3351098 51.6353049,16.5963293 52.122622,16.9332805 C53.112622,17.6060854 53.852378,18.5038902 54.3385976,19.6266951 C54.6568902,20.4125488 54.8160366,21.217061 54.8160366,22.0391341 C54.8160366,23.3112073 54.4692073,24.4515732 53.7777439,25.4624268 C53.0862805,26.4721829 52.1884756,27.2207195 51.0843293,27.706939 C50.2984756,28.0252317 49.4939634,28.184378 48.6707927,28.184378 C48.0353049,28.184378 47.4272561,28.0910854 46.8466463,27.9034024 C46.2671341,27.7168171 45.7337195,27.4545 45.2475,27.1175488" id="Fill-12" fill="#444444"></path>
                <path d="M78.5526585,26.7530488 C78.5526585,27.144878 78.4121707,27.4829268 78.1311951,27.7639024 C77.8513171,28.0437805 77.5143659,28.1842683 77.121439,28.1842683 C76.7296098,28.1842683 76.3959512,28.0437805 76.1259512,27.7639024 C75.8548537,27.4829268 75.7187561,27.144878 75.7187561,26.7530488 L75.7187561,22.0390244 C75.7187561,21.6845122 75.6671707,21.3519512 75.564,21.0435366 C75.4619268,20.735122 75.3258293,20.4497561 75.1568049,20.187439 C74.7825366,19.6441463 74.2963171,19.2435366 73.6992439,18.9812195 C73.3052195,18.8132927 72.8760732,18.7276829 72.4074146,18.7276829 C71.7159512,18.7276829 71.0980244,18.9153659 70.5558293,19.2896341 C70.0125366,19.6639024 69.6119268,20.150122 69.3496098,20.7482927 C69.1805854,21.1412195 69.0971707,21.5714634 69.0971707,22.0390244 L69.0971707,25.1813415 L69.0971707,26.7530488 C69.0971707,27.0340244 69.021439,27.2952439 68.8721707,27.5389024 L68.8161951,27.594878 L68.8161951,27.6234146 C68.5363171,27.9976829 68.1521707,28.1842683 67.6670488,28.1842683 C67.4036341,28.1842683 67.1698537,28.1184146 66.9646098,27.9878049 C66.7582683,27.8571951 66.5903415,27.6892683 66.4597317,27.4829268 C66.329122,27.2952439 66.2632683,27.0526829 66.2632683,26.7530488 L66.2632683,22.0390244 C66.2632683,21.6845122 66.2116829,21.3519512 66.1085122,21.0435366 C66.0053415,20.735122 65.861561,20.4497561 65.6749756,20.187439 C65.3358293,19.6441463 64.8594878,19.2435366 64.2426585,18.9812195 C63.8124146,18.8132927 63.3821707,18.7276829 62.9519268,18.7276829 C62.2604634,18.7276829 61.6425366,18.9153659 61.1003415,19.2896341 C60.5570488,19.6639024 60.1553415,20.150122 59.894122,20.7482927 C59.7250976,21.1412195 59.6416829,21.5714634 59.6416829,22.0390244 L59.6416829,26.7530488 C59.6416829,27.144878 59.5011951,27.4829268 59.2202195,27.7639024 C58.9403415,28.0437805 58.6033902,28.1842683 58.2104634,28.1842683 C57.8175366,28.1842683 57.4816829,28.0437805 57.2007073,27.7639024 C56.9197317,27.4829268 56.7792439,27.144878 56.7792439,26.7530488 L56.7792439,22.0390244 C56.7792439,21.384878 56.8725366,20.7680488 57.0602195,20.187439 C57.2468049,19.6079268 57.509122,19.0745122 57.8460732,18.5882927 C58.1830244,18.1020732 58.5792439,17.667439 59.0380244,17.2832927 C59.4968049,16.9002439 59.9961951,16.5962195 60.5394878,16.3723171 C60.9126585,16.2219512 61.3011951,16.1012195 61.7029024,16.0068293 C62.1057073,15.9135366 62.5216829,15.8663415 62.9519268,15.8663415 C63.5885122,15.8663415 64.196561,15.9607317 64.7771707,16.1473171 C65.3555854,16.335 65.8879024,16.5962195 66.3752195,16.9331707 C66.8625366,17.2514634 67.2916829,17.6432927 67.6670488,18.1108537 C68.301439,17.325 69.0774146,16.7454878 69.9960732,16.3723171 C70.3692439,16.2219512 70.7566829,16.1012195 71.1594878,16.0068293 C71.5611951,15.9135366 71.9771707,15.8663415 72.4074146,15.8663415 C73.0429024,15.8663415 73.6520488,15.9607317 74.231561,16.1473171 C74.8121707,16.335 75.3444878,16.5962195 75.8318049,16.9331707 C76.8404634,17.6257317 77.589,18.5235366 78.0752195,19.6265854 C78.3935122,20.412439 78.5526585,21.2169512 78.5526585,22.0390244 L78.5526585,26.7530488 Z" id="Fill-14" fill="#444444"></path>
                <path d="M90.2523293,26.7530488 L90.2523293,22.0390244 C90.2523293,21.347561 90.0646463,20.7307317 89.690378,20.187439 C89.3172073,19.6441463 88.8298902,19.2435366 88.2328171,18.9812195 C87.8387927,18.8132927 87.4096463,18.7276829 86.9409878,18.7276829 C86.2495244,18.7276829 85.6326951,18.9153659 85.0894024,19.2896341 C84.5274512,19.682561 84.135622,20.1687805 83.910622,20.7482927 C83.7240366,21.1796341 83.6307439,21.6087805 83.6307439,22.0390244 L83.6307439,26.7530488 C83.6307439,27.144878 83.4957439,27.4829268 83.2235488,27.7639024 C82.9524512,28.0437805 82.6198902,28.1842683 82.228061,28.1842683 C81.8351341,28.1842683 81.4981829,28.0437805 81.2183049,27.7639024 C80.9373293,27.4829268 80.7968415,27.144878 80.7968415,26.7530488 L80.7968415,22.0390244 C80.7968415,21.384878 80.8901341,20.7680488 81.0778171,20.187439 C81.2644024,19.6079268 81.5168415,19.0745122 81.8351341,18.5882927 C82.1720854,18.1020732 82.5683049,17.667439 83.0270854,17.2832927 C83.4847683,16.9002439 83.9951341,16.5962195 84.5570854,16.3723171 C84.9302561,16.2219512 85.3144024,16.1012195 85.7062317,16.0068293 C86.1002561,15.9135366 86.5118415,15.8663415 86.9409878,15.8663415 C87.5764756,15.8663415 88.1900122,15.9607317 88.7805,16.1473171 C89.3687927,16.335 89.9055,16.5962195 90.3917195,16.9331707 C91.3839146,17.6059756 92.1225732,18.5037805 92.6087927,19.6265854 C92.9270854,20.412439 93.0862317,21.2169512 93.0862317,22.0390244 L93.0862317,26.7530488 C93.0862317,27.144878 92.9501341,27.4829268 92.6790366,27.7639024 C92.407939,28.0437805 92.0764756,28.1842683 91.6824512,28.1842683 C91.290622,28.1842683 90.9536707,28.0437805 90.6726951,27.7639024 C90.3917195,27.4829268 90.2523293,27.144878 90.2523293,26.7530488" id="Fill-16" fill="#444444"></path>
                <path d="M95.3306341,26.7530488 L95.3306341,20.9030488 C95.3306341,20.5112195 95.471122,20.1742683 95.7520976,19.8932927 C96.0319756,19.6123171 96.3689268,19.4718293 96.7618537,19.4718293 C97.1536829,19.4718293 97.4862439,19.6123171 97.7573415,19.8932927 C98.028439,20.1742683 98.1645366,20.5112195 98.1645366,20.9030488 L98.1645366,26.7530488 C98.1645366,27.144878 98.028439,27.4829268 97.7573415,27.7639024 C97.4862439,28.0437805 97.1536829,28.1842683 96.7618537,28.1842683 C96.3689268,28.1842683 96.0319756,28.0437805 95.7520976,27.7639024 C95.471122,27.4829268 95.3306341,27.144878 95.3306341,26.7530488" id="Fill-18" fill="#444444"></path>
                <path d="M98.1651951,17.2834024 C98.1651951,17.6829146 98.028,18.0187683 97.7547073,18.292061 C97.4825122,18.5642561 97.1466585,18.7014512 96.7471463,18.7014512 C96.3487317,18.7014512 96.012878,18.5642561 95.7395854,18.292061 C95.4662927,18.0187683 95.3301951,17.6829146 95.3301951,17.2834024 C95.3301951,16.8849878 95.4662927,16.5491341 95.7395854,16.2758415 C96.012878,16.0036463 96.3487317,15.8664512 96.7471463,15.8664512 C97.1466585,15.8664512 97.4825122,16.0036463 97.7547073,16.2758415 C98.028,16.5491341 98.1651951,16.8849878 98.1651951,17.2834024" id="Fill-20" fill="#444444"></path>
                <path d="M101.278866,28.183939 C100.848622,28.183939 100.512768,28.0434512 100.26911,27.7635732 C99.9881341,27.5210122 99.8476463,27.184061 99.8476463,26.7527195 C99.8476463,26.2105244 99.9135,25.7341829 100.04411,25.3225976 C100.118744,25.0975976 100.198866,24.8824756 100.283378,24.6772317 C100.366793,24.4708902 100.465573,24.2744268 100.577524,24.0878415 C100.821183,23.6938171 101.082402,23.3491829 101.363378,23.0495488 C101.644354,22.7510122 101.94289,22.4700366 102.261183,22.2077195 C102.467524,22.0211341 102.681549,21.8521098 102.906549,21.7028415 C103.130451,21.5535732 103.345573,21.4032073 103.551915,21.253939 C103.831793,21.0475976 104.112768,20.8610122 104.392646,20.6930854 C104.673622,20.524061 104.94472,20.3462561 105.207037,20.1585732 C105.936915,19.6921098 106.507646,19.2519878 106.918134,18.8404024 C106.936793,18.8030854 106.965329,18.7657683 107.002646,18.7284512 L101.278866,18.7284512 C100.885939,18.7284512 100.548988,18.5879634 100.26911,18.3080854 C99.9881341,18.0271098 99.8476463,17.6901585 99.8476463,17.2972317 C99.8476463,16.9054024 99.9881341,16.5684512 100.26911,16.2874756 C100.548988,16.0065 100.885939,15.8660122 101.278866,15.8660122 L109.023256,15.8660122 C109.376671,15.8660122 109.71472,16.0065 110.033012,16.2874756 C110.313988,16.6057683 110.454476,16.9427195 110.454476,17.2972317 C110.454476,17.7461341 110.378744,18.2136951 110.229476,18.6999146 C110.117524,19.1499146 109.929841,19.5417439 109.667524,19.8797927 C109.442524,20.2529634 109.191183,20.5800366 108.910207,20.8610122 C108.629232,21.1408902 108.329598,21.4130854 108.012402,21.6743049 C107.806061,21.8433293 107.590939,21.9969878 107.367037,22.1374756 C107.143134,22.2779634 106.928012,22.4228415 106.721671,22.5721098 C106.441793,22.7784512 106.165207,22.9650366 105.89411,23.1329634 C105.623012,23.3019878 105.356305,23.4699146 105.095085,23.6378415 C104.739476,23.8815 104.421183,24.1152805 104.141305,24.3402805 C103.860329,24.5641829 103.616671,24.7891829 103.411427,25.0130854 L103.158988,25.3500366 L109.023256,25.3500366 C109.416183,25.3500366 109.752037,25.4861341 110.033012,25.7572317 C110.313988,26.0283293 110.454476,26.3597927 110.454476,26.7527195 C110.454476,27.1456463 110.313988,27.4825976 110.033012,27.7635732 C109.752037,28.0434512 109.416183,28.183939 109.023256,28.183939 L101.278866,28.183939 Z" id="Fill-22" fill="#444444"></path>
                <path d="M114.550354,27.1175488 C113.540598,26.4447439 112.801939,25.5458415 112.332183,24.4241341 C112.014988,23.6755976 111.855841,22.882061 111.855841,22.0391341 C111.855841,20.7484024 112.202671,19.5981585 112.894134,18.5884024 C113.231085,18.1021829 113.6295,17.6675488 114.087183,17.2834024 C114.545963,16.9003537 115.045354,16.5963293 115.588646,16.3724268 C115.961817,16.222061 116.350354,16.1013293 116.752061,16.006939 C117.154866,15.9136463 117.570841,15.8664512 118.002183,15.8664512 C118.524622,15.8664512 119.03389,15.9323049 119.531085,16.0629146 C120.026085,16.194622 120.489256,16.3812073 120.9195,16.6237683 C121.817305,17.1110854 122.547183,17.7652317 123.108037,18.5884024 C123.31328,18.9066951 123.383524,19.2579146 123.317671,19.6409634 C123.251817,20.0240122 123.060841,20.326939 122.743646,20.5530366 L119.71328,22.711939 C119.394988,22.936939 119.044866,23.0225488 118.66072,22.9654756 C118.276573,22.9095 117.972549,22.7218171 117.749744,22.404622 C117.506085,22.0863293 117.416085,21.7307195 117.481939,21.3377927 C117.547793,20.9448659 117.739866,20.6364512 118.057061,20.4125488 L119.741817,19.2052317 L119.572793,19.1218171 C119.085476,18.8605976 118.563037,18.7277927 118.002183,18.7277927 C117.309622,18.7277927 116.691695,18.9154756 116.1495,19.2897439 C115.606207,19.6640122 115.2045,20.1502317 114.942183,20.7484024 C114.775354,21.1413293 114.690841,21.5715732 114.690841,22.0391341 C114.690841,22.7316951 114.876329,23.3485244 115.251695,23.8918171 C115.644622,24.4340122 116.130841,24.826939 116.711451,25.0695 C117.140598,25.2571829 117.570841,25.3504756 118.002183,25.3504756 C118.282061,25.3504756 118.553159,25.312061 118.814378,25.2385244 C119.077793,25.1638902 119.329134,25.0607195 119.572793,24.9301098 C120.020598,24.6864512 120.414622,24.3407195 120.751573,23.8918171 C120.95572,23.5548659 121.255354,23.3485244 121.649378,23.2738902 C122.042305,23.1992561 122.396817,23.2738902 122.71511,23.4977927 C123.033402,23.7227927 123.228768,24.0279146 123.3045,24.4098659 C123.379134,24.7940122 123.31328,25.1441341 123.108037,25.4624268 C122.828159,25.8740122 122.499988,26.2482805 122.12572,26.5852317 C121.751451,26.9210854 121.349744,27.202061 120.9195,27.4259634 C120.489256,27.669622 120.026085,27.8573049 119.531085,27.9879146 C119.03389,28.1185244 118.524622,28.184378 118.002183,28.184378 C117.365598,28.184378 116.752061,28.0910854 116.163768,27.9034024 C115.574378,27.7168171 115.036573,27.4545 114.550354,27.1175488" id="Fill-24" fill="#444444"></path>
            </g>
        </g>
    </g>
</svg>