<?xml version="1.0" encoding="UTF-8"?>
<svg width="28px" height="17px" viewBox="0 0 28 17" version="1.1" xmlns="http://www.w3.org/2000/svg" xmlns:xlink="http://www.w3.org/1999/xlink">
    <!-- Generator: sketchtool 42 (36781) - http://www.bohemiancoding.com/sketch -->
    <title>3BF238B6-8B1D-4A37-99D7-AE33CB512780</title>
    <desc>Created with sketchtool.</desc>
    <defs></defs>
    <g id="Page-1" stroke="none" stroke-width="1" fill="none" fill-rule="evenodd">
        <g id="Icons" transform="translate(-1690.000000, -268.000000)" fill="#FFFFFF">
            <g id="1480014854_icon-3-mail-envelope-closed" transform="translate(1690.000000, 268.000000)">
                <g id="Group">
                    <g id="Page-1">
                        <g id="icon-3-mail-envelope-closed">
                            <path d="M26,0.2 L2,0.2 L12.4923424,9.32835065 C13.3249987,10.0527627 14.6795545,10.0488014 15.5076576,9.32835065 L26,0.2 Z" id="mail-envelope-closed-path"></path>
                            <path d="M0.2,1.4082146 L0.2,15.7917854 C0.2,16.4590639 0.726701312,17 1.40368466,17 L26.5963153,17 C27.261092,17 27.8,16.4600614 27.8,15.7917854 L27.8,1.4082146 C27.8,1.06053422 27.6570085,0.747153944 27.4242717,0.52672022 L16.2620646,10.2329873 C15.0127608,11.3193384 12.9911692,11.3227558 11.7383197,10.2333214 L0.578008664,0.528703196 C0.345272516,0.74887286 0.2,1.06124584 0.2,1.4082146 Z" id="mail-envelope-closed-path"></path>
                        </g>
                    </g>
                </g>
            </g>
        </g>
    </g>
</svg>