<svg xmlns="http://www.w3.org/2000/svg" width="32" height="23" viewBox="0 0 32 23">
    <g fill="none" fill-rule="nonzero">
        <path fill="#002E6D" d="M31.952 10.57C31.952 4.827 24.814.144 16.01.144 7.207.143.069 4.826.069 10.57v.61c0 6.093 6.238 11.03 15.942 11.03 9.765 0 15.944-4.936 15.944-11.029l-.003-.611z"/>
        <ellipse cx="16.012" cy="10.566" fill="#FFE900" rx="15.328" ry="9.806"/>
        <path fill="#FFF" d="M10.924 7.471c-.008.015-.161.174-.062.3.242.31.989.487 1.744.318.45-.101 1.026-.56 1.585-1.004.601-.48 1.202-.963 1.803-1.154a2.067 2.067 0 0 1 1.32-.034c.3.088.645.284 1.2.701 1.053.789 5.268 4.47 5.995 5.108a36.364 36.364 0 0 1 6.74-2.17c-.3-1.89-1.457-3.617-3.2-5.033-2.43 1.02-5.398 1.553-8.302.135-.015 0-1.587-.751-3.137-.714-2.303.053-3.305 1.052-4.357 2.103l-1.33 1.444z"/>
        <path fill="#FFF" d="M24.346 12.106c-.05-.044-4.958-4.34-6.071-5.176-.643-.482-1.003-.6-1.378-.653a1.878 1.878 0 0 0-.655.063c-.517.141-1.194.593-1.794 1.07-.6.476-1.202.961-1.753 1.083-.694.15-1.545-.029-1.93-.29a.855.855 0 0 1-.32-.352c-.15-.332.121-.6.163-.641l1.352-1.465c.15-.15.316-.314.478-.469a8.76 8.76 0 0 0-1.235.278 5.39 5.39 0 0 1-1.44.27c-.495-.05-.986-.128-1.472-.23A21.984 21.984 0 0 1 4.385 4.18C2.46 5.614 1.172 7.408.8 9.382c.277.074.723.206.91.248 4.357.97 5.71 1.968 5.963 2.175a1.442 1.442 0 0 1 2.262.134 1.653 1.653 0 0 1 1.033-.37c.213.001.423.038.624.109.393.125.713.413.878.791.19-.085.394-.129.601-.129.25.004.497.058.725.161.803.344.928 1.134.856 1.73a1.726 1.726 0 0 1 1.693 2.534c.258.15.92.476 1.502.402.465-.058.64-.216.703-.3.044-.062.09-.132.047-.183l-1.229-1.366s-.203-.19-.135-.266c.068-.075.194.033.282.107.627.523 1.39 1.311 1.39 1.311s.063.108.346.16c.34.06.691-.022.972-.226.078-.066.15-.139.213-.22a.126.126 0 0 1-.014.011c.314-.402-.034-.81-.034-.81l-1.436-1.611s-.205-.19-.136-.266c.07-.077.196.033.284.108.451.38 1.097 1.024 1.713 1.627.12.088.661.422 1.378-.048.435-.286.522-.636.509-.902a1.028 1.028 0 0 0-.3-.6l-1.957-1.975s-.207-.177-.133-.267c.073-.09.194.033.282.107.625.522 2.317 2.073 2.317 2.073.407.263.933.252 1.33-.027a.888.888 0 0 0 .437-.703c.01-.3-.11-.59-.33-.795z"/>
        <path fill="#FFF" d="M14.833 14.606c-.3 0-.637.177-.68.15-.044-.027.017-.138.046-.209.028-.07.43-1.275-.547-1.693-.751-.321-1.202.04-1.361.203-.04.043-.06.039-.065-.015a1.076 1.076 0 0 0-.751-1 1.477 1.477 0 0 0-1.665.593 1.065 1.065 0 1 0-.317.901s.01.015 0 .036c-.045.265-.127 1.226.88 1.617.347.133.74.073 1.031-.16.086-.06.1-.034.087.046-.036.247.01.776.752 1.077.377.184.831.1 1.117-.208.095-.087.122-.072.127.062A1.352 1.352 0 1 0 14.83 14.6l.002.006z"/>
        <path fill="#002E6D" d="M24.536 11.592c-1.513-1.32-5.007-4.357-5.953-5.069-.541-.407-.91-.622-1.234-.718a2.045 2.045 0 0 0-.6-.095c-.262.004-.522.047-.77.13-.611.193-1.221.677-1.81 1.146l-.03.024c-.55.436-1.117.888-1.546.984-.188.043-.38.064-.573.065-.48 0-.913-.14-1.075-.346-.027-.035-.01-.09.052-.17l.008-.01 1.33-1.433c1.042-1.043 2.026-2.026 4.291-2.078h.113c1.41 0 2.82.632 2.978.704 1.26.63 2.647.963 4.056.974 1.43 0 2.906-.353 4.456-1.068a9.479 9.479 0 0 0-.54-.427c-1.362.59-2.66.89-3.905.89a8.637 8.637 0 0 1-3.803-.915c-.064-.032-1.622-.765-3.242-.767h-.128c-1.903.045-2.974.721-3.695 1.313a7.309 7.309 0 0 0-1.845.337c-.42.14-.857.224-1.3.25-.166 0-.465-.016-.493-.017-.465-.014-2.807-.59-4.672-1.295-.19.135-.374.273-.551.416 1.953.798 4.318 1.415 5.066 1.465.207.013.43.037.652.037a5.547 5.547 0 0 0 1.466-.272c.283-.08.601-.165.921-.228l-.261.261-1.353 1.462a.68.68 0 0 0-.184.751.95.95 0 0 0 .354.395c.323.217.902.364 1.435.364.192.001.384-.019.572-.06.567-.128 1.162-.601 1.791-1.101.502-.398 1.214-.902 1.76-1.052.16-.043.325-.065.49-.068a.983.983 0 0 1 .128 0c.361.047.71.169 1.331.636 1.11.834 6.02 5.129 6.068 5.171.2.186.31.449.3.721a.787.787 0 0 1-.403.622 1.202 1.202 0 0 1-.645.2 1.06 1.06 0 0 1-.568-.165c-.018-.015-1.7-1.558-2.32-2.075a.518.518 0 0 0-.29-.15.16.16 0 0 0-.128.06c-.098.12.012.285.14.395l1.964 1.976c.147.142.242.33.272.531.015.328-.14.601-.465.815a1.27 1.27 0 0 1-.697.23c-.202.002-.4-.055-.568-.164l-.283-.278c-.515-.507-1.051-1.03-1.436-1.352a.521.521 0 0 0-.3-.15.167.167 0 0 0-.124.052c-.045.05-.075.138.036.285a.97.97 0 0 0 .1.112l1.434 1.61c.012.015.3.352.032.688l-.051.065a1.363 1.363 0 0 1-.134.128 1.146 1.146 0 0 1-.7.222c-.065 0-.13-.006-.194-.017a.485.485 0 0 1-.282-.12l-.018-.018c-.078-.081-.801-.819-1.4-1.319a.496.496 0 0 0-.278-.15.17.17 0 0 0-.13.058c-.118.13.06.323.136.396l1.222 1.352a.285.285 0 0 1-.046.082c-.044.06-.192.21-.636.265-.053.006-.108.009-.162.009a2.796 2.796 0 0 1-1.202-.356 1.824 1.824 0 0 0-1.652-2.602h-.066c.033-.46-.032-1.33-.926-1.713-.24-.108-.5-.165-.763-.168-.191-.001-.38.033-.559.1a1.535 1.535 0 0 0-.892-.75 2.004 2.004 0 0 0-.655-.117 1.725 1.725 0 0 0-1.02.326 1.537 1.537 0 0 0-2.29-.129c-.38-.29-1.892-1.25-5.933-2.168a20.673 20.673 0 0 1-.92-.254 6.53 6.53 0 0 0-.104.665l.892.211c4.128.917 5.493 1.87 5.724 2.051a1.549 1.549 0 0 0 1.711 2.117c.123.625.567 1.14 1.167 1.352.176.07.363.105.552.107.119 0 .237-.015.353-.044.29.608.895 1.003 1.568 1.025.162 0 .322-.028.474-.084a1.82 1.82 0 0 0 2.992.578c.3.164.917.46 1.545.461.078 0 .156-.005.234-.015.623-.08.915-.323 1.052-.512a.802.802 0 0 0 .064-.105c.168.044.342.063.516.057a1.668 1.668 0 0 0 .999-.356c.324-.235.555-.571.588-.857v-.012c.11.023.222.035.334.035a1.858 1.858 0 0 0 1.025-.326 1.48 1.48 0 0 0 .736-1.318c.11.024.224.036.338.036.343-.005.677-.11.961-.3.384-.235.632-.64.667-1.088a1.463 1.463 0 0 0-.211-.877 39.688 39.688 0 0 1 6.365-1.998 6.514 6.514 0 0 0-.089-.661 36.524 36.524 0 0 0-6.708 2.187zM14.834 17.2a1.24 1.24 0 0 1-1.247-1.191c0-.057-.007-.21-.136-.21a.237.237 0 0 0-.15.08c-.16.17-.38.269-.614.276a1.068 1.068 0 0 1-.404-.087c-.712-.289-.72-.777-.692-.974a.18.18 0 0 0-.026-.15l-.043-.04h-.046a.216.216 0 0 0-.123.052 1.043 1.043 0 0 1-.6.215.943.943 0 0 1-.339-.066c-.937-.365-.862-1.25-.817-1.516a.128.128 0 0 0-.04-.123l-.067-.055-.061.06a.974.974 0 1 1 .288-.823l.033.262.15-.221a1.352 1.352 0 0 1 1.555-.553c.403.126.68.495.69.916.01.128.1.133.119.133a.15.15 0 0 0 .112-.059.983.983 0 0 1 .717-.3c.185.003.368.044.536.12.917.393.5 1.556.496 1.568-.078.192-.081.278-.007.328l.036.016h.025a.642.642 0 0 0 .177-.046c.156-.062.321-.099.489-.109a1.25 1.25 0 1 1 0 2.499l-.01-.002z"/>
    </g>
</svg>
