<?xml version="1.0" encoding="UTF-8"?>
<svg width="30px" height="30px" viewBox="0 0 30 30" version="1.1" xmlns="http://www.w3.org/2000/svg" xmlns:xlink="http://www.w3.org/1999/xlink">
    <!-- Generator: sketchtool 41.2 (35397) - http://www.bohemiancoding.com/sketch -->
    <title>96BAAB22-6C3A-4D16-9E08-0CB18BDB69B5</title>
    <desc>Created with sketchtool.</desc>
    <defs></defs>
    <g id="Page-1" stroke="none" stroke-width="1" fill="none" fill-rule="evenodd">
        <g id="Icons" transform="translate(-1689.000000, -623.000000)">
            <g id="Page-1" transform="translate(1689.000000, 623.000000)">
                <circle id="Oval-5" fill="#FFFFFF" cx="14.375" cy="13.125" r="11.875"></circle>
                <path d="M16.3888889,18.7037037 L12.5925926,14.6296296 L5.18518519,18.7037037 L13.3333333,10 L17.2222222,14.0740741 L24.537037,10 L16.3888889,18.7037037 Z M14.9074074,0 C6.67425926,0 0,6.21824074 0,13.8888889 C0,18.2597222 2.16777778,22.1584259 5.55555556,24.7043519 L5.55555556,30 L10.6313889,27.1969444 C11.9860185,27.5741667 13.4211111,27.7777778 14.9074074,27.7777778 C23.1405556,27.7777778 29.8148148,21.559537 29.8148148,13.8888889 C29.8148148,6.21824074 23.1405556,0 14.9074074,0 L14.9074074,0 Z" id="Fill-3" fill="#0084FF"></path>
            </g>
        </g>
    </g>
</svg>