<?xml version="1.0" encoding="UTF-8"?>
<svg width="23px" height="16px" viewBox="0 0 23 16" version="1.1" xmlns="http://www.w3.org/2000/svg" xmlns:xlink="http://www.w3.org/1999/xlink">
    <!-- Generator: sketchtool 41.2 (35397) - http://www.bohemiancoding.com/sketch -->
    <title>C740788E-6688-472B-A5FA-4A4C47E94305</title>
    <desc>Created with sketchtool.</desc>
    <defs></defs>
    <g id="Page-1" stroke="none" stroke-width="1" fill="none" fill-rule="evenodd">
        <g id="Icons" transform="translate(-245.000000, -203.000000)" fill="#FFFFFF">
            <path d="M245,204 C245,203.447715 245.449949,203 246.006845,203 L257.993155,203 C258.54922,203 259,203.443865 259,204 C259,204.552285 258.550051,205 257.993155,205 L246.006845,205 C245.45078,205 245,204.556135 245,204 Z M245,211 C245,210.447715 245.444946,210 245.993398,210 L262.006602,210 C262.555241,210 263,210.443865 263,211 C263,211.552285 262.555054,212 262.006602,212 L245.993398,212 C245.444759,212 245,211.556135 245,211 Z M245,218 C245,217.447715 245.445702,217 246.002071,217 L266.310484,217 C266.863912,217 267.312554,217.443865 267.312554,218 C267.312554,218.552285 266.866853,219 266.310484,219 L246.002071,219 C245.448642,219 245,218.556135 245,218 Z" id="Combined-Shape"></path>
        </g>
    </g>
</svg>