<svg xmlns="http://www.w3.org/2000/svg" width="18" height="18" viewBox="0 0 18 18">
    <g fill="#565151" fill-rule="evenodd" opacity=".5">
        <path d="M16.2 9h-3.6c-.99 0-1.8.81-1.8 1.8v5.4c0 .99.81 1.8 1.8 1.8h3.6c.99 0 1.8-.81 1.8-1.8v-5.4c0-.99-.81-1.8-1.8-1.8zM5.4 0H1.8C.81 0 0 .81 0 1.8v5.4C0 8.19.81 9 1.8 9h3.6c.99 0 1.8-.81 1.8-1.8V1.8C7.2.81 6.39 0 5.4 0zM16.2 0h-3.6c-.99 0-1.8.81-1.8 1.8v1.8c0 .99.81 1.8 1.8 1.8h3.6c.99 0 1.8-.81 1.8-1.8V1.8c0-.99-.81-1.8-1.8-1.8zM5.4 12.6H1.8c-.99 0-1.8.81-1.8 1.8v1.8c0 .99.81 1.8 1.8 1.8h3.6c.99 0 1.8-.81 1.8-1.8v-1.8c0-.99-.81-1.8-1.8-1.8z"/>
    </g>
</svg>
