<?xml version="1.0" encoding="UTF-8" standalone="no"?>
<svg width="15px" height="20px" viewBox="0 0 15 20" version="1.1" xmlns="http://www.w3.org/2000/svg" xmlns:xlink="http://www.w3.org/1999/xlink">
    <!-- Generator: sketchtool 41.2 (35397) - http://www.bohemiancoding.com/sketch -->
    <title>85B94DFE-9B71-4B1D-9D9C-76696A706BDA</title>
    <desc>Created with sketchtool.</desc>
    <defs></defs>
    <g id="Chat-2" stroke="none" stroke-width="1" fill="none" fill-rule="evenodd">
        <g id="Chat-1" transform="translate(-1084.000000, -100.000000)" fill="#FFFFFF">
            <g id="cliente" transform="translate(680.000000, 80.000000)">
                <path d="M411.5,40 C411.5,40 419,31.0251982 419,27.1025618 C419,23.1799255 416.518799,19.9999991 411.5,20 C406.481201,20.0000009 404,23.1799255 404,27.1025618 C404,31.0251982 411.5,40 411.5,40 L411.5,40 L411.5,40 Z M411.5,29.5454545 C413.709139,29.5454545 415.5,27.9173991 415.5,25.9090909 C415.5,23.9007827 413.709139,22.2727273 411.5,22.2727273 C409.290861,22.2727273 407.5,23.9007827 407.5,25.9090909 C407.5,27.9173991 409.290861,29.5454545 411.5,29.5454545 L411.5,29.5454545 L411.5,29.5454545 Z" id="map-location-pin-map-marker-glyph"></path>
            </g>
        </g>
    </g>
</svg>