<svg xmlns="http://www.w3.org/2000/svg" width="17" height="18" viewBox="0 0 17 18">
    <g fill="#565151" fill-rule="evenodd" opacity=".5">
        <path d="M3.068 14.523H1.534c-.844 0-1.534.69-1.534 1.534 0 .844.69 1.534 1.534 1.534h1.534c.844 0 1.534-.69 1.534-1.534 0-.844-.69-1.534-1.534-1.534zM9.205 12.989H7.67c-.843 0-1.534.69-1.534 1.534v1.534c0 .844.69 1.534 1.534 1.534h1.535c.843 0 1.534-.69 1.534-1.534v-1.534c0-.844-.69-1.534-1.534-1.534zM15.34 9.92h-1.533c-.844 0-1.534.69-1.534 1.535v4.602c0 .844.69 1.534 1.534 1.534h1.534c.844 0 1.534-.69 1.534-1.534v-4.602c0-.844-.69-1.535-1.534-1.535zM16.108 0h-5.063c-.69 0-.997.844-.536 1.304l1.457 1.457C9.128 5.983 5.063 8.437.767 8.437c-.46 0-.767.307-.767.768 0 .46.307.767.767.767 5.14 0 9.895-1.458 13.347-5.063l1.38 1.38c.46.461 1.304.154 1.304-.536V.767c.077-.46-.23-.767-.69-.767z"/>
    </g>
</svg>
