<svg xmlns="http://www.w3.org/2000/svg" xmlns:xlink="http://www.w3.org/1999/xlink" width="90" height="90" viewBox="0 0 90 90">
    <defs>
        <circle id="a" cx="45" cy="45" r="45"/>
        <filter id="c" width="136.1%" height="156.1%" x="-11.3%" y="-12%" filterUnits="objectBoundingBox">
            <feOffset dx="1" dy="2" in="SourceAlpha" result="shadowOffsetOuter1"/>
            <feColorMatrix in="shadowOffsetOuter1" result="shadowMatrixOuter1" values="0 0 0 0 0 0 0 0 0 0 0 0 0 0 0 0 0 0 0.25 0"/>
            <feMerge>
                <feMergeNode in="shadowMatrixOuter1"/>
                <feMergeNode in="SourceGraphic"/>
            </feMerge>
        </filter>
        <filter id="d" width="136.1%" height="156.1%" x="-11.3%" y="-12%" filterUnits="objectBoundingBox">
            <feOffset dx="1" dy="2" in="SourceAlpha" result="shadowOffsetOuter1"/>
            <feColorMatrix in="shadowOffsetOuter1" result="shadowMatrixOuter1" values="0 0 0 0 0 0 0 0 0 0 0 0 0 0 0 0 0 0 0.25 0"/>
            <feMerge>
                <feMergeNode in="shadowMatrixOuter1"/>
                <feMergeNode in="SourceGraphic"/>
            </feMerge>
        </filter>
        <path id="f" d="M15.133 39.347a1.52 1.52 0 0 0 1.523-1.518c0-.839-1.523-2.7-1.523-2.7s-1.523 1.861-1.523 2.7a1.52 1.52 0 0 0 1.523 1.518"/>
        <filter id="e" width="132.8%" height="147.4%" x="-16.4%" y="-11.9%" filterUnits="objectBoundingBox">
            <feOffset dy="1" in="SourceAlpha" result="shadowOffsetOuter1"/>
            <feColorMatrix in="shadowOffsetOuter1" values="0 0 0 0 0 0 0 0 0 0 0 0 0 0 0 0 0 0 0.3 0"/>
        </filter>
    </defs>
    <g fill="none" fill-rule="evenodd">
        <circle cx="45" cy="45" r="45" fill="#F6A623"/>
        <mask id="b" fill="#fff">
            <use xlink:href="#a"/>
        </mask>
        <g>
            <g transform="translate(13 13)">
                <path fill="#5E1A11" d="M4.431 9.045c4.7-.773 6.416-3.075 15.965-1.994l-6.612 17.043-5.938 1.323S3.794 17.586 4.43 9.045z"/>
                <path fill="#973B29" d="M.163 54.963c2.388 1.73 4.852 3.024 7.621 4.04 2.74 1.003 5.554 1.668 8.435 2.123 5.918.932 11.94 1.027 17.917.983 5.869-.045 11.743-.173 17.61-.323 6.577-.167 13.162.272 19.733.056 5.776-.189 11.643-.435 17.416-.059.874.057 1.728-.072 2.595-.191 2.678-.372 5.69-.644 8.078-1.955.487-.268.424-1.133-.162-1.24-2.362-.429-4.773.137-7.115.512-.566.09-1.128.202-1.693.3a27.09 27.09 0 0 1-.558.09c-.311.05.217-.017-.226.03-1.685.175-3.458-.02-5.15.013-3.166.062-6.318.139-9.483.087-3.426-.056-6.862-.284-10.285-.454-6.255-.31-12.417-1.471-18.696-1.46-7.713.014-15.415.47-23.129.218-7.617-.25-15.283-1.393-22.628-3.435-.42-.117-.6.434-.28.665"/>
                <path fill="#5E1A11" d="M54.768 3.25c-2.962 0-3.692.665-10.55 3.023l3.946 8.681 2.873 2.458c12.153 2.44 5.589-8.892 3.731-14.163z"/>
                <circle cx="33.69" cy="32.809" r="29.282" fill="#5E1A11"/>
                <path fill="#E61E21" d="M53.77 38.351l.002.129c0 11.087-8.946 22.1-20.034 22.1-10.578 0-19.246-7.079-20.019-17.358-4.325-2.642-7.212-7.407-7.212-12.846 0-8.308 6.734-15.042 15.04-15.042 5.49 0 10.292 2.94 12.919 7.332C36.302 17.61 41.149 14 46.839 14 54.108 14 60 19.892 60 27.161c0 4.725-2.49 8.87-6.23 11.19z" opacity=".25"/>
                <path fill="#E61E21" fill-opacity=".5" d="M34.654 56.096c7.066 0 12.793-5.728 12.793-12.794 0-7.065-3.446-8.667-10.512-8.667-7.065 0-15.074 1.602-15.074 8.667 0 7.066 5.728 12.794 12.793 12.794z"/>
                <path fill="#790607" d="M29.508 45.339c-.275.053-.467-.005-.85.135-.438.16-.822.335-1.297.366-1.072.07-1.32-.774-2.198-1.101-.338-.126-.722.14-.811.464-.724 2.61 5.193 3.24 5.576.462.032-.232-.231-.362-.42-.326M37.065 49.117c-.275.053-.467-.005-.85.136-.439.159-.822.334-1.297.365-1.072.07-1.32-.774-2.198-1.1-.339-.126-.722.14-.812.463-.723 2.61 5.193 3.24 5.577.462.032-.232-.231-.362-.42-.326M37.065 42.117c-.275.053-.467-.005-.85.136-.439.159-.822.334-1.297.365-1.072.07-1.32-.774-2.198-1.1-.339-.126-.722.14-.812.463-.723 2.61 5.193 3.24 5.577.462.032-.232-.231-.362-.42-.326M43.771 45.474c-.438.16-.821.335-1.297.366-1.071.07-1.32-.774-2.197-1.101-.339-.126-.723.14-.812.464-.723 2.61 5.193 3.24 5.576.462.032-.232-.23-.362-.42-.326-.275.053-.466-.005-.85.135z" opacity=".5"/>
                <g fill="#F6A623" filter="url(#c)" transform="translate(15.24 54.786)">
                    <rect width="2.939" height="5.877" rx="1.469"/>
                    <rect width="2.939" height="5.877" x="2.939" y="1.469" rx="1.469"/>
                    <rect width="2.939" height="5.877" x="5.877" y="2.449" rx="1.469"/>
                </g>
                <g fill="#F6A623" filter="url(#d)" transform="matrix(-1 0 0 1 52.393 55.29)">
                    <rect width="2.939" height="5.877" rx="1.469"/>
                    <rect width="2.939" height="5.877" x="2.939" y="1.469" rx="1.469"/>
                    <rect width="2.939" height="5.877" x="5.877" y="2.449" rx="1.469"/>
                </g>
                <path fill="#5E1A11" d="M20.718 35.074c5.46 0 9.887-1.46 9.887-6.921 0-5.46-4.427-9.887-9.887-9.887-5.46 0-9.887 4.427-9.887 9.887 0 5.46 4.427 6.92 9.887 6.92z"/>
                <path fill="#801B14" d="M20.529 31.484c5.503 0 9.964-1.472 9.964-6.975s-4.461-6.964-9.964-6.964-9.964 1.46-9.964 6.964c0 5.503 4.46 6.975 9.964 6.975z"/>
                <path fill="#5E1A11" d="M47.576 33.375c5.477 0 9.918-2.236 9.918-7.714 0-5.477-4.44-9.918-9.918-9.918-5.478 0-9.919 4.44-9.919 9.918 0 5.478 4.44 7.714 9.919 7.714z"/>
                <path fill="#801B14" d="M47.116 30c5.905 0 10.693-2.411 10.693-8.317 0-5.905-4.788-5.94-10.693-5.94-5.906 0-10.693.035-10.693 5.94C36.423 27.59 41.21 30 47.116 30z"/>
                <g fill="#F6A623">
                    <path d="M31.822 36.084s1.959-1.076 2.322 1.884c.134 1.09 2.064.667 1.982 0-.363-2.96 2.02-2.66 2.02-2.66-.658-5.358-4.002-6.45-4.002-6.45s-2.98 1.869-2.322 7.226z"/>
                </g>
            </g>
            <path fill="#49B8E2" d="M33.928 46.964s-4.552.702-5.856 0c-1.304-.703-1.003 2.092 1.614 2.08 2.617-.01 4.305-.354 5.907 0 1.601.354 5.43-1.41 5.43-2.636 0-1.226-7.095.556-7.095.556z"/>
            <g transform="translate(13 13)">
                <use fill="#000" filter="url(#e)" xlink:href="#f"/>
                <use fill="#49B8E2" xlink:href="#f"/>
            </g>
            <path stroke="#FFF" stroke-linecap="round" stroke-linejoin="round" d="M29.161 50.62s.026.87-.772 1.1" opacity=".5"/>
            <path fill="#49B8E2" d="M61.541 45.162s4.436-.96 5.645-1.816c1.208-.856 1.418 3.056-1.18 3.364-2.6.308-4.317.174-5.863.72-1.547.546-5.168-1.701-5.348-3.167-.18-1.465 6.746.899 6.746.899z"/>
        </g>
    </g>
</svg>
