<?xml version="1.0" encoding="UTF-8"?>
<svg width="25px" height="17px" viewBox="0 0 25 17" version="1.1" xmlns="http://www.w3.org/2000/svg" xmlns:xlink="http://www.w3.org/1999/xlink">
    <!-- Generator: sketchtool 41.2 (35397) - http://www.bohemiancoding.com/sketch -->
    <title>5630DA63-DB06-4598-B5F5-BEF8E60EA038</title>
    <desc>Created with sketchtool.</desc>
    <defs></defs>
    <g id="Page-1" stroke="none" stroke-width="1" fill="none" fill-rule="evenodd">
        <g id="Icons" transform="translate(-2157.000000, -271.000000)" fill="#FFFFFF">
            <path d="M2182,285.110919 L2163.24375,285.110919 L2163.24375,286.608479 C2163.24375,287.162111 2162.85318,287.37634 2162.38867,287.097361 L2157.85508,284.374478 C2157.38283,284.090848 2157.39057,283.62634 2157.85508,283.347361 L2162.38867,280.624478 C2162.86092,280.340848 2163.24375,280.557869 2163.24375,281.11336 L2163.24375,282.610919 L2182,282.610919 L2182,285.110919 Z M2157,275.610919 L2175.75,275.610919 L2175.75,277.108479 C2175.75,277.662111 2176.14097,277.87634 2176.60593,277.597361 L2181.14407,274.874478 C2181.61679,274.590848 2181.60903,274.12634 2181.14407,273.847361 L2176.60593,271.124478 C2176.13321,270.840848 2175.75,271.057869 2175.75,271.61336 L2175.75,273.110919 L2157,273.110919 L2157,275.610919 Z" id="Combined-Shape-Copy"></path>
        </g>
    </g>
</svg>