<?xml version="1.0" encoding="UTF-8"?>
<svg width="13px" height="15px" viewBox="0 0 13 15" version="1.1" xmlns="http://www.w3.org/2000/svg" xmlns:xlink="http://www.w3.org/1999/xlink">
    <!-- Generator: sketchtool 42 (36781) - http://www.bohemiancoding.com/sketch -->
    <title>CF2F1FEB-1668-469A-98D6-07E01D454808</title>
    <desc>Created with sketchtool.</desc>
    <defs></defs>
    <g id="Page-1" stroke="none" stroke-width="1" fill="none" fill-rule="evenodd">
        <g id="Icons" transform="translate(-2460.000000, -248.000000)" fill="#565151">
            <g id="bin" transform="translate(2460.000000, 248.000000)">
                <path d="M11.7551972,1.35338346 L9.49450549,1.35338346 L9.49450549,0.997797887 C9.49450549,0.446729331 9.04379114,0 8.50430056,0 L4.48818064,0 C3.94130556,0 3.49797571,0.443148362 3.49797571,0.997797887 L3.49797571,1.35338346 L1.23728398,1.35338346 C0.472726431,1.35338346 0,1.86171429 0,2.68944361 L0,3.51879699 L12.9924812,3.51879699 L12.9924812,2.68944361 C12.9924812,1.86171429 12.5192551,1.35338346 11.7551972,1.35338346 Z" id="Shape"></path>
                <path d="M0,4.17293233 L1.88932331,13.6347068 C1.88932331,14.379609 2.49455639,15 3.23945865,15 L6.47729323,15 L9.71512782,15 C10.4600301,15 11.0647218,14.379609 11.0647218,13.6347068 L12.9545865,4.17293233 L6.47729323,4.17293233 L0,4.17293233 Z" id="Shape"></path>
            </g>
        </g>
    </g>
</svg>