<?xml version="1.0" encoding="UTF-8"?>
<svg width="23px" height="30px" viewBox="0 0 23 30" version="1.1" xmlns="http://www.w3.org/2000/svg" xmlns:xlink="http://www.w3.org/1999/xlink">
    <!-- Generator: sketchtool 41.2 (35397) - http://www.bohemiancoding.com/sketch -->
    <title>43B8F61E-AEEF-40DD-9602-9AA45AA8103D</title>
    <desc>Created with sketchtool.</desc>
    <defs></defs>
    <g id="Page-1" stroke="none" stroke-width="1" fill="none" fill-rule="evenodd">
        <g id="Icons" transform="translate(-246.000000, -256.000000)" fill="#FFFFFF">
            <g id="visitantes-online" transform="translate(246.000000, 256.000000)">
                <path d="M20.0669392,16.6666667 C18.4169312,13.0296283 14.7538788,10.5 10.5,10.5 C4.70101013,10.5 0,15.2010101 0,21 L12.0732123,21 C12.4895009,18.5401248 14.6310808,16.6666667 17.2100804,16.6666667 L20.0669392,16.6666667 Z M10.5,10.5 C13.3994949,10.5 15.75,8.14949494 15.75,5.25 C15.75,2.35050506 13.3994949,0 10.5,0 C7.60050506,0 5.25,2.35050506 5.25,5.25 C5.25,8.14949494 7.60050506,10.5 10.5,10.5 Z" id="Combined-Shape"></path>
                <path d="M22.73375,23.3670833 C22.73375,20.955 20.77875,19 18.3670833,19 C15.955,19 14,20.955 14,23.3670833 C14,23.79875 14.06375,24.2154167 14.1804167,24.61 C14.8020833,27.1245833 18.3866667,29.9370833 18.3866667,29.9370833 C18.3866667,29.9370833 22.43625,26.7616667 22.6745833,24.14125 L22.6641667,24.1391667 C22.7091667,23.88875 22.73375,23.6308333 22.73375,23.3670833 Z M18.4266667,24.3395833 C17.44,24.3395833 16.64,23.5395833 16.64,22.5529167 C16.64,21.56625 17.44,20.76625 18.4266667,20.76625 C19.4129167,20.76625 20.2129167,21.56625 20.2129167,22.5529167 C20.2129167,23.5395833 19.4129167,24.3395833 18.4266667,24.3395833 Z" id="Shape"></path>
            </g>
        </g>
    </g>
</svg>