<?xml version="1.0" encoding="UTF-8"?>
<svg width="16px" height="27px" viewBox="0 0 16 27" version="1.1" xmlns="http://www.w3.org/2000/svg" xmlns:xlink="http://www.w3.org/1999/xlink">
    <!-- Generator: sketchtool 41.2 (35397) - http://www.bohemiancoding.com/sketch -->
    <title>986F35B2-D5E7-4F80-994A-F691AA4529E2</title>
    <desc>Created with sketchtool.</desc>
    <defs></defs>
    <g id="Page-1" stroke="none" stroke-width="1" fill="none" fill-rule="evenodd">
        <g id="Icons" transform="translate(-1696.000000, -534.000000)" fill="#FFFFFF">
            <g id="microfone" transform="translate(1696.000000, 534.000000)">
                <path d="M15.4624779,12.5998407 C15.4624779,12.2479646 15.1771858,11.9626726 14.8253097,11.9626726 C14.4734336,11.9626726 14.1881416,12.2479646 14.1881416,12.5998407 C14.1881416,16.1659115 11.2973097,19.0567434 7.73123894,19.0567434 C4.16516814,19.0567434 1.27433628,16.1659115 1.27433628,12.5998407 C1.27433628,12.2479646 0.989044248,11.9626726 0.637168142,11.9626726 C0.285292035,11.9626726 0,12.2479646 0,12.5998407 C0.00517699115,16.6049204 3.06422124,19.9447965 7.05345133,20.3008142 L7.05345133,25.6673628 L3.94725664,25.6673628 C3.59538053,25.6673628 3.3100885,25.9526549 3.3100885,26.304531 C3.3100885,26.6564071 3.59538053,26.9416991 3.94725664,26.9416991 L11.5932743,26.9416991 C11.9451504,26.9416991 12.2304425,26.6564071 12.2304425,26.304531 C12.2304425,25.9526549 11.9451504,25.6673628 11.5932743,25.6673628 L8.32778761,25.6673628 L8.32778761,20.3079823 C12.351823,19.9915487 15.4574602,16.6363009 15.4624779,12.5998407" id="Fill-1"></path>
                <path d="M7.73123894,17.2798407 C10.0912301,17.2767345 12.003292,15.3636372 12.0050442,13.003646 L12.0050442,4.21630088 C11.9728673,1.85575221 10.0330885,-0.0317787611 7.67253982,0.000398230089 C5.35738938,0.0319380531 3.48817699,1.90115044 3.45663717,4.21630088 L3.45663717,13.003646 C3.45838938,15.3639558 5.3709292,17.2772124 7.73123894,17.2798407" id="Fill-3"></path>
            </g>
        </g>
    </g>
</svg>