<svg xmlns="http://www.w3.org/2000/svg" xmlns:xlink="http://www.w3.org/1999/xlink" width="39" height="39" viewBox="0 0 39 39">
    <defs>
        <path id="a" d="M3 0h29a3 3 0 0 1 3 3v32H0V3a3 3 0 0 1 3-3z"/>
    </defs>
    <g fill="none" fill-rule="evenodd">
        <g transform="translate(2 2)">
            <use fill="#FFF" xlink:href="#a"/>
            <path stroke="#CDCCCD" stroke-width="2" d="M3-1h29a4 4 0 0 1 4 4v33H-1V3a4 4 0 0 1 4-4z"/>
        </g>
        <path fill="#4990E2" d="M5 27h29a3 3 0 0 1 3 3v7H2v-7a3 3 0 0 1 3-3z"/>
    </g>
</svg>
